/* XPM */
static char *excelToYaml[] = {
/* columns rows colors chars-per-pixel */
"112 56 201 2 ",
"   c black",
".  c #010101",
"X  c #020202",
"o  c gray1",
"O  c #040404",
"+  c #050505",
"@  c #060606",
"#  c #070707",
"$  c gray4",
"%  c #0B0B0B",
"&  c #0C0C0C",
"*  c gray5",
"=  c gray6",
"-  c #111111",
";  c #161616",
":  c #181818",
">  c #191919",
",  c gray10",
"<  c #1B1B1B",
"1  c #1C1C1C",
"2  c #1E1E1E",
"3  c #113F27",
"4  c #222222",
"5  c #252525",
"6  c #262626",
"7  c #282828",
"8  c #292929",
"9  c #2A2A2A",
"0  c gray17",
"q  c gray18",
"w  c #313131",
"e  c gray21",
"r  c #373737",
"t  c gray22",
"y  c #3C3C3C",
"u  c #3D3D3D",
"i  c #3E3E3E",
"p  c #3F3F3F",
"a  c #14482C",
"s  c #14482D",
"d  c #175333",
"f  c #1C653E",
"g  c #207347",
"h  c #227448",
"j  c #237549",
"k  c #23754A",
"l  c #24764B",
"z  c #25764B",
"x  c #26774C",
"c  c #27774D",
"v  c #28784D",
"b  c #29784E",
"n  c #2A7A50",
"m  c #2C7B51",
"M  c #2D7B52",
"N  c #307D54",
"B  c #317D55",
"V  c #317E55",
"C  c #414141",
"Z  c gray26",
"A  c #494949",
"S  c #4B4B4B",
"D  c #4C4C4C",
"F  c gray30",
"G  c gray31",
"H  c #505050",
"J  c #515151",
"K  c #535353",
"L  c #555555",
"P  c #565656",
"I  c gray36",
"U  c gray37",
"Y  c #5F5F5F",
"T  c #606060",
"R  c gray38",
"E  c #696969",
"W  c gray42",
"Q  c #6D6D6D",
"!  c gray43",
"~  c #6F6F6F",
"^  c gray44",
"/  c #767676",
"(  c #777777",
")  c #787878",
"_  c #797979",
"`  c #7C7C7C",
"'  c gray49",
"]  c #358058",
"[  c #37815A",
"{  c #38825B",
"}  c #3A835D",
"|  c #3B845D",
" . c #4A8D6A",
".. c #529270",
"X. c #549372",
"o. c #549472",
"O. c #589675",
"+. c #5B9877",
"@. c #639D7F",
"#. c #69A183",
"$. c #6AA284",
"%. c #6FA488",
"&. c #71A68A",
"*. c #72A78B",
"=. c #77AA8F",
"-. c #79AB91",
";. c #7FAF96",
":. c #868686",
">. c #878787",
",. c #898989",
"<. c #8B8B8B",
"1. c #8D8D8D",
"2. c #909090",
"3. c #939393",
"4. c #959595",
"5. c #989898",
"6. c #9F9F9F",
"7. c #81B097",
"8. c #82B098",
"9. c #85B39B",
"0. c #89B59E",
"q. c #8EB8A2",
"w. c #94BCA7",
"e. c #99BFAB",
"r. c #A0A0A0",
"t. c #A1A1A1",
"y. c #A2A2A2",
"u. c #A7A7A7",
"i. c #A8A8A8",
"p. c #AAAAAA",
"a. c #ABABAB",
"s. c #ACACAC",
"d. c gray68",
"f. c #AEAEAE",
"g. c gray69",
"h. c #B2B2B2",
"j. c gray70",
"k. c #B6B6B6",
"l. c #B7B7B7",
"z. c #B8B8B8",
"x. c #BCBCBC",
"c. c #BEBEBE",
"v. c #9AC0AC",
"b. c #9BC0AD",
"n. c #9CC1AD",
"m. c #B3CFC0",
"M. c #B5D0C2",
"N. c #BCD5C7",
"B. c #C0C0C0",
"V. c #C2C2C2",
"C. c #C3C3C3",
"Z. c gray77",
"A. c #C8C8C8",
"S. c gray80",
"D. c gray81",
"F. c #CBDED4",
"G. c gray82",
"H. c #D2D2D2",
"J. c #D7D7D7",
"K. c gray85",
"L. c #DADADA",
"P. c gainsboro",
"I. c #DDDDDD",
"U. c #DFDFDF",
"Y. c #D1E2D9",
"T. c #D2E2D9",
"R. c #D9E7DF",
"E. c #DDEAE3",
"W. c #DEEAE4",
"Q. c gray90",
"!. c #E6E6E6",
"~. c #E3EDE8",
"^. c #E4EEE9",
"/. c gray93",
"(. c #EEEEEE",
"). c #EFEFEF",
"_. c #E7F0EB",
"`. c #E7F0EC",
"'. c #E8F1EC",
"]. c #ECF3EF",
"[. c #EEF4F1",
"{. c #EFF5F2",
"}. c gray94",
"|. c gray95",
" X c #F0F6F3",
".X c #F1F6F3",
"XX c #F2F7F4",
"oX c #F4F4F4",
"OX c #F6F6F6",
"+X c #F4F8F6",
"@X c #F6FAF8",
"#X c #F8F8F8",
"$X c #F9F9F9",
"%X c #F8FBF9",
"&X c #F9FBFA",
"*X c gray98",
"=X c #FBFBFB",
"-X c gray99",
";X c #FCFDFC",
":X c #FCFDFD",
">X c white",
/* pixels */
"Z.Z.Z.Z.Z.Z.Z.Z.Z.Z.Z.Z.Z.Z.Z.Z.Z.Z.Z.Z.Z.Z.Z.Z.Z.Z.Z.Z.Z.Z.Z.Z.Z.Z.Z.Z.Z.Z.Z.Z.Z.Z.Z.Z.Z.Z.Z.Z.Z.Z.Z.Z.Z.Z.Z.Z.Z.Z.Z.Z.Z.Z.Z.Z.Z.Z.Z.Z.Z.Z.Z.Z.Z.Z.Z.Z.Z.Z.Z.Z.Z.Z.Z.Z.Z.Z.Z.Z.Z.Z.Z.Z.Z.Z.Z.Z.Z.Z.Z.Z.Z.Z.Z.Z.Z.Z.Z.Z.Z.Z.Z.Z.",
"Z.Z.Z.Z.Z.Z.Z.Z.Z.Z.Z.Z.Z.Z.Z.Z.Z.Z.Z.Z.Z.Z.Z.Z.Z.Z.Z.Z.Z.Z.Z.Z.Z.Z.Z.Z.Z.Z.Z.Z.Z.Z.Z.Z.Z.Z.Z.Z.Z.Z.Z.Z.Z.Z.Z.Z.Z.Z.Z.Z.Z.Z.Z.Z.Z.Z.Z.Z.Z.Z.Z.Z.Z.Z.Z.Z.Z.Z.Z.Z.Z.Z.Z.Z.Z.Z.Z.Z.Z.Z.Z.Z.Z.Z.Z.Z.Z.Z.Z.Z.Z.Z.Z.Z.Z.Z.Z.Z.Z.Z.Z.Z.",
"Z.Z.Z.Z.Z.Z.Z.Z.Z.Z.Z.Z.Z.Z.Z.Z.Z.Z.Z.Z.Z.Z.Z.Z.Z.Z.Z.Z.Z.Z.Z.Z.Z.Z.Z.Z.Z.Z.Z.Z.Z.Z.Z.Z.Z.Z.Z.Z.Z.Z.Z.Z.Z.Z.Z.Z.Z.Z.Z.Z.Z.Z.Z.Z.Z.Z.Z.Z.Z.Z.Z.Z.Z.Z.Z.Z.Z.Z.Z.Z.Z.Z.Z.Z.Z.Z.Z.Z.Z.Z.Z.Z.Z.Z.Z.Z.Z.Z.Z.Z.Z.Z.Z.Z.Z.Z.Z.Z.Z.Z.Z.Z.",
"Z.Z.Z.Z.Z.s.a.a.a.a.a.a.a.a.a.a.a.a.a.a.a.a.a.a.a.a.a.a.a.a.a.a.a.a.a.a.a.a.a.a.a.a.a.f.Z.Z.Z.Z.Z.Z.Z.Z.Z.Z.Z.Z.Z.Z.Z.Z.Z.Z.Z.Z.Z.Z.Z.Z.f.a.a.a.a.a.a.a.a.a.a.a.a.a.a.a.a.a.a.a.a.a.a.a.a.a.a.a.a.a.a.a.a.a.a.a.a.a.s.Z.Z.Z.Z.Z.",
"Z.Z.Z.Z.Z.+                                                                           : Z.Z.Z.Z.Z.Z.Z.Z.Z.Z.Z.Z.Z.Z.Z.Z.Z.Z.Z.Z.Z.Z.Z.Z.:                                                                           + Z.Z.Z.Z.Z.",
"Z.Z.Z.Z.Z.+                                                                           : Z.Z.Z.Z.Z.Z.Z.Z.Z.Z.Z.Z.Z.Z.Z.Z.Z.Z.Z.Z.Z.Z.Z.Z.:                                                                           + Z.Z.Z.Z.Z.",
"Z.Z.Z.Z.Z.+   s f f f f f f f f f f f f f f f f f f f f f f f f f f f f f f f f f 3   : Z.Z.Z.Z.Z.Z.Z.Z.Z.Z.Z.Z.Z.Z.Z.Z.Z.Z.Z.Z.Z.Z.Z.Z.:   <.U.U.U.U.U.U.U.U.U.U.U.U.U.U.U.U.U.U.U.U.U.U.U.U.U.U.U.U.U.U.U.U.U.r.  + Z.Z.Z.Z.Z.",
"Z.Z.Z.Z.Z.+   d g g g g g g g g g g g g g g g g g g g g g g g g g g g g g g g g g a   : Z.Z.Z.Z.Z.Z.Z.Z.Z.Z.Z.Z.Z.Z.Z.Z.Z.Z.Z.Z.Z.Z.Z.Z.:   6.>X>X>X>X>X>X>X>X>X>X>X>X>X>X>X>X>X>X>X>X>X>X>X>X>X>X>X>X>X>X>X>X>Xl.  + Z.Z.Z.Z.Z.",
"Z.Z.Z.Z.Z.+   d g g g g g g g g g g g g g g g g g g g g g g g g g g g g g g g g g a   : Z.Z.Z.Z.Z.Z.Z.Z.Z.Z.Z.Z.Z.Z.Z.Z.Z.Z.Z.Z.Z.Z.Z.Z.:   6.>X>X>X>X>X>X>X>X>X>X>X>X>X>X>X>X>X>X>X>X>X>X>X>X>X>X>X>X>X>X>X>X>Xl.  + Z.Z.Z.Z.Z.",
"Z.Z.Z.Z.Z.+   d g g g g g g g g g g g g g g g g g g g g g g g g g g g g g g g g g a   : Z.Z.Z.Z.Z.Z.Z.Z.Z.Z.Z.Z.Z.Z.Z.Z.Z.Z.Z.Z.Z.Z.Z.Z.:   6.>X>X>X>X>X>X>X>X>X>X>X>X>X>X>X>X>X>X>X>X>X>X>X>X>X>X>X>X>X>X>X>X>Xl.  + Z.Z.Z.Z.Z.",
"Z.Z.Z.Z.Z.+   d g g g g g g g g g g g g g g g g g g g g g g g g g g g g g g g g g a   : Z.Z.Z.Z.Z.Z.Z.Z.Z.Z.Z.Z.Z.Z.Z.Z.Z.Z.Z.Z.Z.Z.Z.Z.:   6.>X>X>X>X>X>X>X>X>X>X>X>X>X>X>X>X>X>X>X>X>X>X>X>X>X>X>X>X>X>X>X>X>Xl.  + Z.Z.Z.Z.Z.",
"Z.Z.Z.Z.Z.+   d g g g g g g g g g g g g g g g g g g g g g g g g g g g g g g g g g a   : Z.Z.Z.Z.Z.Z.Z.Z.Z.Z.Z.Z.Z.Z.Z.Z.Z.Z.Z.Z.Z.Z.Z.Z.:   6.>X>X>X>X>X>X>X>X>X>X>X>X>X>X>X>X>X>X>X>X>X>X>X>X>X>X>X>X>X>X>X>X>Xl.  + Z.Z.Z.Z.Z.",
"Z.Z.Z.Z.Z.+   d g g g g g g g g g g g g g g g g g g g g g g g g g g g g g g g g g a   : Z.Z.Z.Z.Z.Z.Z.Z.Z.Z.Z.Z.Z.Z.Z.Z.Z.Z.Z.Z.Z.Z.Z.Z.:   6.>X>X>X>X>X>X>X>X>X>X>X>X>X>X>X>X>X>X>X>X>X>X>X>X>X>X>X>X>X>X>X>X>Xl.  + Z.Z.Z.Z.Z.",
"Z.Z.Z.Z.Z.+   d g g g g g g g g g g g g g g g g g g g g g g g g g g g g g g g g g a   : Z.Z.Z.Z.Z.Z.Z.Z.Z.Z.Z.Z.Z.Z.Z.Z.Z.Z.Z.Z.Z.Z.Z.Z.:   6.>X>X>X>X>X>X>X>X>X>X>X>X>X>X>X>X>X>X>X>X>X>X>X>X>X>X>X>X>X>X>X>X>Xl.  + Z.Z.Z.Z.Z.",
"Z.Z.Z.Z.Z.+   d g g g g g g g g g g g g g g g g g g g g g g g g g g g g g g g g g a   : Z.Z.Z.Z.Z.Z.Z.Z.Z.Z.Z.Z.Z.Z.Z.Z.Z.Z.Z.Z.Z.Z.Z.Z.:   6.>X>X>X>X>X>X>X>X>X>X>X>X>X>X>X>X>X>X>X>X>X>X>X>X>X>X>X>X>X>X>X>X>Xl.  + Z.Z.Z.Z.Z.",
"Z.Z.Z.Z.Z.+   d g g g g g g g g g g g g g g g g g g g g g g g g g g g g g g g g g a   : Z.Z.Z.Z.Z.Z.Z.Z.Z.Z.Z.Z.Z.Z.Z.Z.Z.Z.Z.Z.Z.Z.Z.Z.:   6.>X>X>X>X>X>X>X>X>X>X>X>X>X>X>X>X>X>X>X>X>X>X>X>X>X>X>X>X>X>X>X>X>Xl.  + Z.Z.Z.Z.Z.",
"Z.Z.Z.Z.Z.+   d g g g g g g g g g g g g g g g g g g g g g g g g g g g g g g g g g a   : Z.Z.Z.Z.Z.Z.Z.Z.Z.Z.Z.Z.Z.Z.Z.Z.Z.Z.Z.Z.Z.Z.Z.Z.:   6.>X>X>X>X>X>X>X>X>X>X>X>X>X>X>X>X>X>X>X>X>X>X>X>X>X>X>X>X>X>X>X>X>Xl.  + Z.Z.Z.Z.Z.",
"Z.Z.Z.Z.Z.+   d g g g g g g g g g g g g g g g g g g g g g g g g g g g g g g g g g a   : Z.Z.Z.Z.Z.Z.Z.Z.Z.Z.Z.Z.Z.Z.Z.Z.Z.Z.Z.Z.Z.Z.Z.Z.:   6.>X>X>X>X>X>X>X>X>X>X>X>X>X>X>X>X>X>X>X>X>X>X>X>X>X>X>X>X>X>X>X>X>Xl.  + Z.Z.Z.Z.Z.",
"Z.Z.Z.Z.Z.+   d g g g g g g g g g g g g g g g g g g g g g g g g g g g g g g g g g a   : Z.Z.Z.Z.Z.Z.Z.Z.Z.Z.Z.Z.Z.Z.Z.Z.Z.Z.Z.Z.Z.Z.Z.Z.:   6.>X>X>X>X>X>X>X>X>X>X>X>X>X>X>X>X>X>X>X>X>X>X>X>X>X>X>X>X>X>X>X>X>Xl.  + Z.Z.Z.Z.Z.",
"Z.Z.Z.Z.Z.+   d g g g g g g g g g c ] ] ] B g g g g g V ] ] ] z g g g g g g g g g a   : Z.Z.Z.Z.Z.Z.Z.Z.Z.Z.Z.Z.Z.Z.Z.Z.Z.Z.Z.Z.Z.Z.Z.Z.:   6.>X>X>X>X>X>X>X>X>X>X>X>X>X>X>X>X>X>X>X>X>X>X>X>X>X>X>X>XP.G G ! >Xl.  + Z.Z.Z.Z.Z.",
"Z.Z.Z.Z.Z.+   d g g g g g g g g g { %X>X>X&X] g g g } ;X>X>X[.m g g g g g g g g g a   : Z.Z.Z.Z.Z.Z.Z.Z.Z.Z.Z.Q x.Z.Z.Z.Z.Z.Z.Z.Z.Z.Z.Z.:   6.>X>X>X>X>X>X>X>X>X>X>X>X>X>X>X>X>X>X>X>X>X>X>X>X>X>X>X>XS.    0 >Xl.  + Z.Z.Z.Z.Z.",
"Z.Z.Z.Z.Z.+   d g g g g g g g g g g e.>X>X>Xw.g g g b.>X>X>X8.g g g g g g g g g g a   : Z.Z.Z.Z.Z.Z.Z.Z.Z.Z.Z.9 4 i.Z.Z.Z.Z.Z.Z.Z.Z.Z.Z.:   6.>X>X>X>X>X>X>X>X>X>X>X>X>X>X>X>X>X>X>X>X>X>X>X>X>X>X>X>XS.    0 >Xl.  + Z.Z.Z.Z.Z.",
"Z.Z.Z.Z.Z.+   d g g g g g g g g g g N .X>X>X Xn g M +X>X>X^.x g g g g g g g g g g a   : Z.Z.Z.Z.Z.Z.Z.Z.Z.Z.Z.9   & ,.Z.Z.Z.Z.Z.Z.Z.Z.Z.:   6.>X>X>X>X>X>X>X>X>X>X>X>X>X>X>X>X>X>X>X>X>X>X>X>X>X>X>X>XS.    0 >Xl.  + Z.Z.Z.Z.Z.",
"Z.Z.Z.Z.Z.+   d g g g g g g g g g g g 0.>X>X>X7.g 9.>X>X>X*.g g g g g g g g g g g a   : Z.Z.Z.Z.Z.Z.Z.Z.Z.Z.Z.9     . Y V.Z.Z.Z.Z.Z.Z.Z.:   6.>Xu.~ ~ l.>X>X>X_ ~ ^ oX!.~ ~ V.Z.T Y B.>XA.W G <.*X>X>XS.    0 >Xl.  + Z.Z.Z.Z.Z.",
"Z.Z.Z.Z.Z.+   d g g g g g g g g g g g b '.>X>X^.v _.>X>XR.h g g g g g g g g g g g a   : Z.Z.Z.Z.Z.Z.Z.Z.Z.Z.Z.8         r k.Z.Z.Z.Z.Z.Z.:   6.>Xg.    A >X>XJ.    e >XG.    C @     $ / O       ! >X>XS.    0 >Xl.  + Z.Z.Z.Z.Z.",
"Z.Z.Z.Z.Z.+   d g g g g g g g g g g g g -.>X>X>XN.>X>X>X@.g g g g g g g g g g g g a   : Z.Z.t.>.>.>.>.>.>.>.>.1           > 6.Z.Z.Z.Z.Z.:   6.>X=X:   % $X>X1.    4.>XG.      F H       q W o   - >X>XS.    0 >Xl.  + Z.Z.Z.Z.Z.",
"Z.Z.Z.Z.Z.+   d g g g g g g g g g g g g k W.>X>X>X>X>XF.g g g g g g g g g g g g g a   : Z.Z.L                               # ` Z.Z.Z.Z.:   6.>X>X(     B.>XZ   @ /.>XG.    2 >X}.      Q.>X0     #X>XS.    0 >Xl.  + Z.Z.Z.Z.Z.",
"Z.Z.Z.Z.Z.+   d g g g g g g g g g g g g g $.>X>X>X>X>XX.g g g g g g g g g g g g g a   : Z.Z.L                                   J B.Z.Z.:   6.>X>XL.    ` |.+   K >X>XG.    P >X>X*   2 >X>XF     (.>XS.    0 >Xl.  + Z.Z.Z.Z.Z.",
"Z.Z.Z.Z.Z.+   d g g g g g g g g g g g g g &.>X>X>X>X>X+.g g g g g g g g g g g g g a   : Z.Z.L                                   & 5.Z.Z.:   6.>X>X>Xi   t d.    h.>X>XG.    U >X>X-   6 >X>XJ     (.>XS.    0 >Xl.  + Z.Z.Z.Z.Z.",
"Z.Z.Z.Z.Z.+   d g g g g g g g g g g g g z ~.>X>X>X>X>XY.g g g g g g g g g g g g g a   : Z.Z.L                                 6 p.Z.Z.Z.:   6.>X>X>Xy.  o K   ; =X>X>XG.    U >X>X-   6 >X>XJ     (.>XS.    0 >Xl.  + Z.Z.Z.Z.Z.",
"Z.Z.Z.Z.Z.+   d g g g g g g g g g g g g ;.>X>X>Xm.>X>X>X#.g g g g g g g g g g g g a   : Z.Z.) u u u u u u u u &             D c.Z.Z.Z.Z.:   6.>X>X>XOX=       ^ >X>X>XG.    U >X>X-   6 >X>XJ     (.>XS.    0 >Xl.  + Z.Z.Z.Z.Z.",
"Z.Z.Z.Z.Z.+   d g g g g g g g g g g g n ].>X>XT.n XX>X>XE.j g g g g g g g g g g g a   : Z.Z.Z.Z.Z.Z.Z.Z.Z.Z.Z.6         @ _ Z.Z.Z.Z.Z.Z.:   6.>X>X>X>XE       D.>X>X>XG.    U >X>X-   6 >X>XJ     (.>XS.    0 >Xl.  + Z.Z.Z.Z.Z.",
"Z.Z.Z.Z.Z.+   d g g g g g g g g g g g q.>X>X>X%.g v.>X>X>X=.g g g g g g g g g g g a   : Z.Z.Z.Z.Z.Z.Z.Z.Z.Z.Z.6       < 6.Z.Z.Z.Z.Z.Z.Z.:   6.>X>X>X>XZ.    q >X>X>X>XI.p p :.>X>XF p I >X>X' p p |.>XK.p p T >Xl.  + Z.Z.Z.Z.Z.",
"Z.Z.Z.Z.Z.+   d g g g g g g g g g g V +X>X>X`.l g | :X>X>X_.c g g g g g g g g g g a   : Z.Z.Z.Z.Z.Z.Z.Z.Z.Z.Z.6     y z.Z.Z.Z.Z.Z.Z.Z.Z.:   6.>X>X>X>XR     t.>X>X>X>X>X>X>X>X>X>X>X>X>X>X>X>X>X>X>X>X>X>X>X>X>Xl.  + Z.Z.Z.Z.Z.",
"Z.Z.Z.Z.Z.+   d g g g g g g g g g g n.>X>X>X0.g g g M.>X>X>X9.g g g g g g g g g g a   : Z.Z.Z.Z.Z.Z.Z.Z.Z.Z.Z.5 X E C.Z.Z.Z.Z.Z.Z.Z.Z.Z.:   6.>XU.:.K     7 -X>X>X>X>X>X>X>X>X>X>X>X>X>X>X>X>X>X>X>X>X>X>X>X>X>Xl.  + Z.Z.Z.Z.Z.",
"Z.Z.Z.Z.Z.+   d g g g g g g g g g } &X>X>X@XN g g g ..>X>X>X{.M g g g g g g g g g a   : Z.Z.Z.Z.Z.Z.Z.Z.Z.Z.Z.r 3.Z.Z.Z.Z.Z.Z.Z.Z.Z.Z.Z.:   6.>Xj.      , I.>X>X>X>X>X>X>X>X>X>X>X>X>X>X>X>X>X>X>X>X>X>X>X>X>X>Xl.  + Z.Z.Z.Z.Z.",
"Z.Z.Z.Z.Z.+   d g g g g g g g g g [ O.O.O. .g g g g g o.O.O.O.V g g g g g g g g g a   : Z.Z.Z.Z.Z.Z.Z.Z.Z.Z.Z.x.Z.Z.Z.Z.Z.Z.Z.Z.Z.Z.Z.Z.:   6.>XH.w S 2.).>X>X>X>X>X>X>X>X>X>X>X>X>X>X>X>X>X>X>X>X>X>X>X>X>X>X>Xl.  + Z.Z.Z.Z.Z.",
"Z.Z.Z.Z.Z.+   d g g g g g g g g g g g g g g g g g g g g g g g g g g g g g g g g g a   : Z.Z.Z.Z.Z.Z.Z.Z.Z.Z.Z.Z.Z.Z.Z.Z.Z.Z.Z.Z.Z.Z.Z.Z.:   6.>X>X>X>X>X>X>X>X>X>X>X>X>X>X>X>X>X>X>X>X>X>X>X>X>X>X>X>X>X>X>X>X>Xl.  + Z.Z.Z.Z.Z.",
"Z.Z.Z.Z.Z.+   d g g g g g g g g g g g g g g g g g g g g g g g g g g g g g g g g g a   : Z.Z.Z.Z.Z.Z.Z.Z.Z.Z.Z.Z.Z.Z.Z.Z.Z.Z.Z.Z.Z.Z.Z.Z.:   6.>X>X>X>X>X>X>X>X>X>X>X>X>X>X>X>X>X>X>X>X>X>X>X>X>X>X>X>X>X>X>X>X>Xl.  + Z.Z.Z.Z.Z.",
"Z.Z.Z.Z.Z.+   d g g g g g g g g g g g g g g g g g g g g g g g g g g g g g g g g g a   : Z.Z.Z.Z.Z.Z.Z.Z.Z.Z.Z.Z.Z.Z.Z.Z.Z.Z.Z.Z.Z.Z.Z.Z.:   6.>X>X>X>X>X>X>X>X>X>X>X>X>X>X>X>X>X>X>X>X>X>X>X>X>X>X>X>X>X>X>X>X>Xl.  + Z.Z.Z.Z.Z.",
"Z.Z.Z.Z.Z.+   d g g g g g g g g g g g g g g g g g g g g g g g g g g g g g g g g g a   : Z.Z.Z.Z.Z.Z.Z.Z.Z.Z.Z.Z.Z.Z.Z.Z.Z.Z.Z.Z.Z.Z.Z.Z.:   6.>X>X>X>X>X>X>X>X>X>X>X>X>X>X>X>X>X>X>X>X>X>X>X>X>X>X>X>X>X>X>X>X>Xl.  + Z.Z.Z.Z.Z.",
"Z.Z.Z.Z.Z.+   d g g g g g g g g g g g g g g g g g g g g g g g g g g g g g g g g g a   : Z.Z.Z.Z.Z.Z.Z.Z.Z.Z.Z.Z.Z.Z.Z.Z.Z.Z.Z.Z.Z.Z.Z.Z.:   6.>X>X>X>X>X>X>X>X>X>X>X>X>X>X>X>X>X>X>X>X>X>X>X>X>X>X>X>X>X>X>X>X>Xl.  + Z.Z.Z.Z.Z.",
"Z.Z.Z.Z.Z.+   d g g g g g g g g g g g g g g g g g g g g g g g g g g g g g g g g g a   : Z.Z.Z.Z.Z.Z.Z.Z.Z.Z.Z.Z.Z.Z.Z.Z.Z.Z.Z.Z.Z.Z.Z.Z.:   6.>X>X>X>X>X>X>X>X>X>X>X>X>X>X>X>X>X>X>X>X>X>X>X>X>X>X>X>X>X>X>X>X>Xl.  + Z.Z.Z.Z.Z.",
"Z.Z.Z.Z.Z.+   d g g g g g g g g g g g g g g g g g g g g g g g g g g g g g g g g g a   : Z.Z.Z.Z.Z.Z.Z.Z.Z.Z.Z.Z.Z.Z.Z.Z.Z.Z.Z.Z.Z.Z.Z.Z.:   6.>X>X>X>X>X>X>X>X>X>X>X>X>X>X>X>X>X>X>X>X>X>X>X>X>X>X>X>X>X>X>X>X>Xl.  + Z.Z.Z.Z.Z.",
"Z.Z.Z.Z.Z.+   d g g g g g g g g g g g g g g g g g g g g g g g g g g g g g g g g g a   : Z.Z.Z.Z.Z.Z.Z.Z.Z.Z.Z.Z.Z.Z.Z.Z.Z.Z.Z.Z.Z.Z.Z.Z.:   6.>X>X>X>X>X>X>X>X>X>X>X>X>X>X>X>X>X>X>X>X>X>X>X>X>X>X>X>X>X>X>X>X>Xl.  + Z.Z.Z.Z.Z.",
"Z.Z.Z.Z.Z.+   d g g g g g g g g g g g g g g g g g g g g g g g g g g g g g g g g g a   : Z.Z.Z.Z.Z.Z.Z.Z.Z.Z.Z.Z.Z.Z.Z.Z.Z.Z.Z.Z.Z.Z.Z.Z.:   6.>X>X>X>X>X>X>X>X>X>X>X>X>X>X>X>X>X>X>X>X>X>X>X>X>X>X>X>X>X>X>X>X>Xl.  + Z.Z.Z.Z.Z.",
"Z.Z.Z.Z.Z.+   d g g g g g g g g g g g g g g g g g g g g g g g g g g g g g g g g g a   : Z.Z.Z.Z.Z.Z.Z.Z.Z.Z.Z.Z.Z.Z.Z.Z.Z.Z.Z.Z.Z.Z.Z.Z.:   6.>X>X>X>X>X>X>X>X>X>X>X>X>X>X>X>X>X>X>X>X>X>X>X>X>X>X>X>X>X>X>X>X>Xl.  + Z.Z.Z.Z.Z.",
"Z.Z.Z.Z.Z.+   d g g g g g g g g g g g g g g g g g g g g g g g g g g g g g g g g g a   : Z.Z.Z.Z.Z.Z.Z.Z.Z.Z.Z.Z.Z.Z.Z.Z.Z.Z.Z.Z.Z.Z.Z.Z.:   6.>X>X>X>X>X>X>X>X>X>X>X>X>X>X>X>X>X>X>X>X>X>X>X>X>X>X>X>X>X>X>X>X>Xl.  + Z.Z.Z.Z.Z.",
"Z.Z.Z.Z.Z.+   d g g g g g g g g g g g g g g g g g g g g g g g g g g g g g g g g g a   : Z.Z.Z.Z.Z.Z.Z.Z.Z.Z.Z.Z.Z.Z.Z.Z.Z.Z.Z.Z.Z.Z.Z.Z.:   6.>X>X>X>X>X>X>X>X>X>X>X>X>X>X>X>X>X>X>X>X>X>X>X>X>X>X>X>X>X>X>X>X>Xl.  + Z.Z.Z.Z.Z.",
"Z.Z.Z.Z.Z.+   s f f f f f f f f f f f f f f f f f f f f f f f f f f f f f f f f f 3   : Z.Z.Z.Z.Z.Z.Z.Z.Z.Z.Z.Z.Z.Z.Z.Z.Z.Z.Z.Z.Z.Z.Z.Z.:   <.U.U.U.U.U.U.U.U.U.U.U.U.U.U.U.U.U.U.U.U.U.U.U.U.U.U.U.U.U.U.U.U.U.r.  + Z.Z.Z.Z.Z.",
"Z.Z.Z.Z.Z.+                                                                           : Z.Z.Z.Z.Z.Z.Z.Z.Z.Z.Z.Z.Z.Z.Z.Z.Z.Z.Z.Z.Z.Z.Z.Z.:                                                                           + Z.Z.Z.Z.Z.",
"Z.Z.Z.Z.Z.+                                                                           : Z.Z.Z.Z.Z.Z.Z.Z.Z.Z.Z.Z.Z.Z.Z.Z.Z.Z.Z.Z.Z.Z.Z.Z.:                                                                           + Z.Z.Z.Z.Z.",
"Z.Z.Z.Z.Z.s.a.a.a.a.a.a.a.a.a.a.a.a.a.a.a.a.a.a.a.a.a.a.a.a.a.a.a.a.a.a.a.a.a.a.a.a.a.f.Z.Z.Z.Z.Z.Z.Z.Z.Z.Z.Z.Z.Z.Z.Z.Z.Z.Z.Z.Z.Z.Z.Z.Z.f.a.a.a.a.a.a.a.a.a.a.a.a.a.a.a.a.a.a.a.a.a.a.a.a.a.a.a.a.a.a.a.a.a.a.a.a.a.s.Z.Z.Z.Z.Z.",
"Z.Z.Z.Z.Z.Z.Z.Z.Z.Z.Z.Z.Z.Z.Z.Z.Z.Z.Z.Z.Z.Z.Z.Z.Z.Z.Z.Z.Z.Z.Z.Z.Z.Z.Z.Z.Z.Z.Z.Z.Z.Z.Z.Z.Z.Z.Z.Z.Z.Z.Z.Z.Z.Z.Z.Z.Z.Z.Z.Z.Z.Z.Z.Z.Z.Z.Z.Z.Z.Z.Z.Z.Z.Z.Z.Z.Z.Z.Z.Z.Z.Z.Z.Z.Z.Z.Z.Z.Z.Z.Z.Z.Z.Z.Z.Z.Z.Z.Z.Z.Z.Z.Z.Z.Z.Z.Z.Z.Z.Z.Z.Z.",
"Z.Z.Z.Z.Z.Z.Z.Z.Z.Z.Z.Z.Z.Z.Z.Z.Z.Z.Z.Z.Z.Z.Z.Z.Z.Z.Z.Z.Z.Z.Z.Z.Z.Z.Z.Z.Z.Z.Z.Z.Z.Z.Z.Z.Z.Z.Z.Z.Z.Z.Z.Z.Z.Z.Z.Z.Z.Z.Z.Z.Z.Z.Z.Z.Z.Z.Z.Z.Z.Z.Z.Z.Z.Z.Z.Z.Z.Z.Z.Z.Z.Z.Z.Z.Z.Z.Z.Z.Z.Z.Z.Z.Z.Z.Z.Z.Z.Z.Z.Z.Z.Z.Z.Z.Z.Z.Z.Z.Z.Z.Z.Z.",
"Z.Z.Z.Z.Z.Z.Z.Z.Z.Z.Z.Z.Z.Z.Z.Z.Z.Z.Z.Z.Z.Z.Z.Z.Z.Z.Z.Z.Z.Z.Z.Z.Z.Z.Z.Z.Z.Z.Z.Z.Z.Z.Z.Z.Z.Z.Z.Z.Z.Z.Z.Z.Z.Z.Z.Z.Z.Z.Z.Z.Z.Z.Z.Z.Z.Z.Z.Z.Z.Z.Z.Z.Z.Z.Z.Z.Z.Z.Z.Z.Z.Z.Z.Z.Z.Z.Z.Z.Z.Z.Z.Z.Z.Z.Z.Z.Z.Z.Z.Z.Z.Z.Z.Z.Z.Z.Z.Z.Z.Z.Z.Z."
};
