/* XPM */
static char *excelToYaml[] = {
/* columns rows colors chars-per-pixel */
"112 56 169 2 ",
"   c black",
".  c gray1",
"X  c #040404",
"o  c gray2",
"O  c #060606",
"+  c gray4",
"@  c #0B0B0B",
"#  c gray5",
"$  c gray6",
"%  c #111111",
"&  c #161616",
"*  c #181818",
"=  c gray10",
"-  c #1E1E1E",
";  c #113F27",
":  c gray15",
">  c #282828",
",  c gray17",
"<  c gray18",
"1  c #313131",
"2  c gray21",
"3  c gray22",
"4  c #3E3E3E",
"5  c #3F3F3F",
"6  c #14482C",
"7  c #14482D",
"8  c #175333",
"9  c #1C653E",
"0  c #207347",
"q  c #227448",
"w  c #237549",
"e  c #23754A",
"r  c #24764B",
"t  c #25764B",
"y  c #26774C",
"u  c #27774D",
"i  c #28784D",
"p  c #29784E",
"a  c #2A7A50",
"s  c #2C7B51",
"d  c #2D7B52",
"f  c #307D54",
"g  c #317D55",
"h  c #317E55",
"j  c #414141",
"k  c gray26",
"l  c #494949",
"z  c #4B4B4B",
"x  c gray30",
"c  c gray31",
"v  c #505050",
"b  c #515151",
"n  c #535353",
"m  c #565656",
"M  c gray36",
"N  c gray37",
"B  c #5F5F5F",
"V  c #606060",
"C  c gray38",
"Z  c DimGray",
"A  c gray42",
"S  c gray43",
"D  c #6F6F6F",
"F  c gray44",
"G  c #767676",
"H  c #777777",
"J  c #797979",
"K  c #7C7C7C",
"L  c gray49",
"P  c #358058",
"I  c #37815A",
"U  c #38825B",
"Y  c #3A835D",
"T  c #3B845D",
"R  c #4A8D6A",
"E  c #529270",
"W  c #549372",
"Q  c #549472",
"!  c #589675",
"~  c #5B9877",
"^  c #639D7F",
"/  c #69A183",
"(  c #6AA284",
")  c #6FA488",
"_  c #71A68A",
"`  c #72A78B",
"'  c #77AA8F",
"]  c #79AB91",
"[  c #7FAF96",
"{  c #868686",
"}  c #8B8B8B",
"|  c #8D8D8D",
" . c #909090",
".. c #959595",
"X. c #9F9F9F",
"o. c #81B097",
"O. c #82B098",
"+. c #85B39B",
"@. c #89B59E",
"#. c #8EB8A2",
"$. c #94BCA7",
"%. c #99BFAB",
"&. c #A0A0A0",
"*. c gray63",
"=. c #A2A2A2",
"-. c #A7A7A7",
";. c gray68",
":. c gray69",
">. c #B2B2B2",
",. c gray70",
"<. c #B7B7B7",
"1. c #9AC0AC",
"2. c #9BC0AD",
"3. c #9CC1AD",
"4. c #B3CFC0",
"5. c #B5D0C2",
"6. c #BCD5C7",
"7. c #C0C0C0",
"8. c gray76",
"9. c gray77",
"0. c #C8C8C8",
"q. c gray80",
"w. c gray81",
"e. c #CBDED4",
"r. c gray82",
"t. c #D2D2D2",
"y. c #D7D7D7",
"u. c gray85",
"i. c #DADADA",
"p. c gainsboro",
"a. c #DDDDDD",
"s. c #DFDFDF",
"d. c #D1E2D9",
"f. c #D2E2D9",
"g. c #D9E7DF",
"h. c #DDEAE3",
"j. c #DEEAE4",
"k. c gray90",
"l. c #E6E6E6",
"z. c #E3EDE8",
"x. c #E4EEE9",
"c. c gray93",
"v. c #EEEEEE",
"b. c #EFEFEF",
"n. c #E7F0EB",
"m. c #E7F0EC",
"M. c #E8F1EC",
"N. c #ECF3EF",
"B. c #EEF4F1",
"V. c #EFF5F2",
"C. c gray94",
"Z. c gray95",
"A. c #F0F6F3",
"S. c #F1F6F3",
"D. c #F2F7F4",
"F. c #F4F4F4",
"G. c #F6F6F6",
"H. c #F4F8F6",
"J. c #F6FAF8",
"K. c #F8F8F8",
"L. c #F9F9F9",
"P. c #F8FBF9",
"I. c #F9FBFA",
"U. c gray98",
"Y. c #FBFBFB",
"T. c gray99",
"R. c #FCFDFC",
"E. c #FCFDFD",
"W. c white",
/* pixels */
"W.W.W.W.W.W.W.W.W.W.W.W.W.W.W.W.W.W.W.W.W.W.W.W.W.W.W.W.W.W.W.W.W.W.W.W.W.W.W.W.W.W.W.W.W.W.W.W.W.W.W.W.W.W.W.W.W.W.W.W.W.W.W.W.W.W.W.W.W.W.W.W.W.W.W.W.W.W.W.W.W.W.W.W.W.W.W.W.W.W.W.W.W.W.W.W.W.W.W.W.W.W.W.W.W.W.W.W.W.W.W.W.",
"W.W.W.W.W.W.W.W.W.W.W.W.W.W.W.W.W.W.W.W.W.W.W.W.W.W.W.W.W.W.W.W.W.W.W.W.W.W.W.W.W.W.W.W.W.W.W.W.W.W.W.W.W.W.W.W.W.W.W.W.W.W.W.W.W.W.W.W.W.W.W.W.W.W.W.W.W.W.W.W.W.W.W.W.W.W.W.W.W.W.W.W.W.W.W.W.W.W.W.W.W.W.W.W.W.W.W.W.W.W.W.W.",
"W.W.W.W.W.W.W.W.W.W.W.W.W.W.W.W.W.W.W.W.W.W.W.W.W.W.W.W.W.W.W.W.W.W.W.W.W.W.W.W.W.W.W.W.W.W.W.W.W.W.W.W.W.W.W.W.W.W.W.W.W.W.W.W.W.W.W.W.W.W.W.W.W.W.W.W.W.W.W.W.W.W.W.W.W.W.W.W.W.W.W.W.W.W.W.W.W.W.W.W.W.W.W.W.W.W.W.W.W.W.W.W.",
"W.W.W.W.W.                                                                              W.W.W.W.W.W.W.W.W.W.W.W.W.W.W.W.W.W.W.W.W.W.W.W.                                                                              W.W.W.W.W.",
"W.W.W.W.W.                                                                              W.W.W.W.W.W.W.W.W.W.W.W.W.W.W.W.W.W.W.W.W.W.W.W.                                                                              W.W.W.W.W.",
"W.W.W.W.W.                                                                              W.W.W.W.W.W.W.W.W.W.W.W.W.W.W.W.W.W.W.W.W.W.W.W.                                                                              W.W.W.W.W.",
"W.W.W.W.W.    7 9 9 9 9 9 9 9 9 9 9 9 9 9 9 9 9 9 9 9 9 9 9 9 9 9 9 9 9 9 9 9 9 9 ;     W.W.W.W.W.W.W.W.W.W.W.W.W.W.W.W.W.W.W.W.W.W.W.W.    } s.s.s.s.s.s.s.s.s.s.s.s.s.s.s.s.s.s.s.s.s.s.s.s.s.s.s.s.s.s.s.s.s.&.    W.W.W.W.W.",
"W.W.W.W.W.    8 0 0 0 0 0 0 0 0 0 0 0 0 0 0 0 0 0 0 0 0 0 0 0 0 0 0 0 0 0 0 0 0 0 6     W.W.W.W.W.W.W.W.W.W.W.W.W.W.W.W.W.W.W.W.W.W.W.W.    X.W.W.W.W.W.W.W.W.W.W.W.W.W.W.W.W.W.W.W.W.W.W.W.W.W.W.W.W.W.W.W.W.W.<.    W.W.W.W.W.",
"W.W.W.W.W.    8 0 0 0 0 0 0 0 0 0 0 0 0 0 0 0 0 0 0 0 0 0 0 0 0 0 0 0 0 0 0 0 0 0 6     W.W.W.W.W.W.W.W.W.W.W.W.W.W.W.W.W.W.W.W.W.W.W.W.    X.W.W.W.W.W.W.W.W.W.W.W.W.W.W.W.W.W.W.W.W.W.W.W.W.W.W.W.W.W.W.W.W.W.<.    W.W.W.W.W.",
"W.W.W.W.W.    8 0 0 0 0 0 0 0 0 0 0 0 0 0 0 0 0 0 0 0 0 0 0 0 0 0 0 0 0 0 0 0 0 0 6     W.W.W.W.W.W.W.W.W.W.W.W.W.W.W.W.W.W.W.W.W.W.W.W.    X.W.W.W.W.W.W.W.W.W.W.W.W.W.W.W.W.W.W.W.W.W.W.W.W.W.W.W.W.W.W.W.W.W.<.    W.W.W.W.W.",
"W.W.W.W.W.    8 0 0 0 0 0 0 0 0 0 0 0 0 0 0 0 0 0 0 0 0 0 0 0 0 0 0 0 0 0 0 0 0 0 6     W.W.W.W.W.W.W.W.W.W.W.W.W.W.W.W.W.W.W.W.W.W.W.W.    X.W.W.W.W.W.W.W.W.W.W.W.W.W.W.W.W.W.W.W.W.W.W.W.W.W.W.W.W.W.W.W.W.W.<.    W.W.W.W.W.",
"W.W.W.W.W.    8 0 0 0 0 0 0 0 0 0 0 0 0 0 0 0 0 0 0 0 0 0 0 0 0 0 0 0 0 0 0 0 0 0 6     W.W.W.W.W.W.W.W.W.W.W.W.W.W.W.W.W.W.W.W.W.W.W.W.    X.W.W.W.W.W.W.W.W.W.W.W.W.W.W.W.W.W.W.W.W.W.W.W.W.W.W.W.W.W.W.W.W.W.<.    W.W.W.W.W.",
"W.W.W.W.W.    8 0 0 0 0 0 0 0 0 0 0 0 0 0 0 0 0 0 0 0 0 0 0 0 0 0 0 0 0 0 0 0 0 0 6     W.W.W.W.W.W.W.W.W.W.W.W.W.W.W.W.W.W.W.W.W.W.W.W.    X.W.W.W.W.W.W.W.W.W.W.W.W.W.W.W.W.W.W.W.W.W.W.W.W.W.W.W.W.W.W.W.W.W.<.    W.W.W.W.W.",
"W.W.W.W.W.    8 0 0 0 0 0 0 0 0 0 0 0 0 0 0 0 0 0 0 0 0 0 0 0 0 0 0 0 0 0 0 0 0 0 6     W.W.W.W.W.W.W.W.W.W.W.W.W.W.W.W.W.W.W.W.W.W.W.W.    X.W.W.W.W.W.W.W.W.W.W.W.W.W.W.W.W.W.W.W.W.W.W.W.W.W.W.W.W.W.W.W.W.W.<.    W.W.W.W.W.",
"W.W.W.W.W.    8 0 0 0 0 0 0 0 0 0 0 0 0 0 0 0 0 0 0 0 0 0 0 0 0 0 0 0 0 0 0 0 0 0 6     W.W.W.W.W.W.W.W.W.W.W.W.W.W.W.W.W.W.W.W.W.W.W.W.    X.W.W.W.W.W.W.W.W.W.W.W.W.W.W.W.W.W.W.W.W.W.W.W.W.W.W.W.W.W.W.W.W.W.<.    W.W.W.W.W.",
"W.W.W.W.W.    8 0 0 0 0 0 0 0 0 0 0 0 0 0 0 0 0 0 0 0 0 0 0 0 0 0 0 0 0 0 0 0 0 0 6     W.W.W.W.W.W.W.W.W.W.W.W.W.W.W.W.W.W.W.W.W.W.W.W.    X.W.W.W.W.W.W.W.W.W.W.W.W.W.W.W.W.W.W.W.W.W.W.W.W.W.W.W.W.W.W.W.W.W.<.    W.W.W.W.W.",
"W.W.W.W.W.    8 0 0 0 0 0 0 0 0 0 0 0 0 0 0 0 0 0 0 0 0 0 0 0 0 0 0 0 0 0 0 0 0 0 6     W.W.W.W.W.W.W.W.W.W.W.W.W.W.W.W.W.W.W.W.W.W.W.W.    X.W.W.W.W.W.W.W.W.W.W.W.W.W.W.W.W.W.W.W.W.W.W.W.W.W.W.W.W.W.W.W.W.W.<.    W.W.W.W.W.",
"W.W.W.W.W.    8 0 0 0 0 0 0 0 0 0 0 0 0 0 0 0 0 0 0 0 0 0 0 0 0 0 0 0 0 0 0 0 0 0 6     W.W.W.W.W.W.W.W.W.W.W.W.W.W.W.W.W.W.W.W.W.W.W.W.    X.W.W.W.W.W.W.W.W.W.W.W.W.W.W.W.W.W.W.W.W.W.W.W.W.W.W.W.W.W.W.W.W.W.<.    W.W.W.W.W.",
"W.W.W.W.W.    8 0 0 0 0 0 0 0 0 0 0 0 0 0 0 0 0 0 0 0 0 0 0 0 0 0 0 0 0 0 0 0 0 0 6     W.W.W.W.W.W.W.W.W.W.W.W.W.W.W.W.W.W.W.W.W.W.W.W.    X.W.W.W.W.W.W.W.W.W.W.W.W.W.W.W.W.W.W.W.W.W.W.W.W.W.W.W.W.W.W.W.W.W.<.    W.W.W.W.W.",
"W.W.W.W.W.    8 0 0 0 0 0 0 0 0 0 u P P P g 0 0 0 0 0 h P P P t 0 0 0 0 0 0 0 0 0 6     W.W.W.W.W.W.W.W.W.W.W.W.W.W.W.W.W.W.W.W.W.W.W.W.    X.W.W.W.W.W.W.W.W.W.W.W.W.W.W.W.W.W.W.W.W.W.W.W.W.W.W.W.W.p.c c S W.<.    W.W.W.W.W.",
"W.W.W.W.W.    8 0 0 0 0 0 0 0 0 0 U P.W.W.I.P 0 0 0 Y R.W.W.B.s 0 0 0 0 0 0 0 0 0 6     W.W.W.W.W.W.W.W.W.W.W.    W.W.W.W.W.W.W.W.W.W.W.    X.W.W.W.W.W.W.W.W.W.W.W.W.W.W.W.W.W.W.W.W.W.W.W.W.W.W.W.W.q.    , W.<.    W.W.W.W.W.",
"W.W.W.W.W.    8 0 0 0 0 0 0 0 0 0 0 %.W.W.W.$.0 0 0 2.W.W.W.O.0 0 0 0 0 0 0 0 0 0 6     W.W.W.W.W.W.W.W.W.W.W.      W.W.W.W.W.W.W.W.W.W.    X.W.W.W.W.W.W.W.W.W.W.W.W.W.W.W.W.W.W.W.W.W.W.W.W.W.W.W.W.q.    , W.<.    W.W.W.W.W.",
"W.W.W.W.W.    8 0 0 0 0 0 0 0 0 0 0 f S.W.W.A.a 0 d H.W.W.x.y 0 0 0 0 0 0 0 0 0 0 6     W.W.W.W.W.W.W.W.W.W.W.        W.W.W.W.W.W.W.W.W.    X.W.W.W.W.W.W.W.W.W.W.W.W.W.W.W.W.W.W.W.W.W.W.W.W.W.W.W.W.q.    , W.<.    W.W.W.W.W.",
"W.W.W.W.W.    8 0 0 0 0 0 0 0 0 0 0 0 @.W.W.W.o.0 +.W.W.W.` 0 0 0 0 0 0 0 0 0 0 0 6     W.W.W.W.W.W.W.W.W.W.W.            W.W.W.W.W.W.W.    X.W.-.D D <.W.W.W.J D F F.l.D D 8.9.V B 7.W.0.A c } U.W.W.q.    , W.<.    W.W.W.W.W.",
"W.W.W.W.W.    8 0 0 0 0 0 0 0 0 0 0 0 p M.W.W.x.i n.W.W.g.q 0 0 0 0 0 0 0 0 0 0 0 6     W.W.W.W.W.W.W.W.W.W.W.              W.W.W.W.W.W.    X.W.:.    l W.W.y.    2 W.r.    j O     + G X       S W.W.q.    , W.<.    W.W.W.W.W.",
"W.W.W.W.W.    8 0 0 0 0 0 0 0 0 0 0 0 0 ] W.W.W.6.W.W.W.^ 0 0 0 0 0 0 0 0 0 0 0 0 6     W.W.                                  W.W.W.W.W.    X.W.Y.*   @ L.W.|     ..W.r.      x v       < A .   % W.W.q.    , W.<.    W.W.W.W.W.",
"W.W.W.W.W.    8 0 0 0 0 0 0 0 0 0 0 0 0 e j.W.W.W.W.W.e.0 0 0 0 0 0 0 0 0 0 0 0 0 6     W.W.                                    W.W.W.W.    X.W.W.H     7.W.k   O c.W.r.    - W.C.      k.W.,     K.W.q.    , W.<.    W.W.W.W.W.",
"W.W.W.W.W.    8 0 0 0 0 0 0 0 0 0 0 0 0 0 ( W.W.W.W.W.W 0 0 0 0 0 0 0 0 0 0 0 0 0 6     W.W.                                        W.W.    X.W.W.i.    K Z.o   n W.W.r.    m W.W.#   - W.W.x     v.W.q.    , W.<.    W.W.W.W.W.",
"W.W.W.W.W.    8 0 0 0 0 0 0 0 0 0 0 0 0 0 _ W.W.W.W.W.~ 0 0 0 0 0 0 0 0 0 0 0 0 0 6     W.W.                                        W.W.    X.W.W.W.4   3 ;.    >.W.W.r.    N W.W.%   : W.W.b     v.W.q.    , W.<.    W.W.W.W.W.",
"W.W.W.W.W.    8 0 0 0 0 0 0 0 0 0 0 0 0 t z.W.W.W.W.W.d.0 0 0 0 0 0 0 0 0 0 0 0 0 6     W.W.                                      W.W.W.    X.W.W.W.=.  . n   & Y.W.W.r.    N W.W.%   : W.W.b     v.W.q.    , W.<.    W.W.W.W.W.",
"W.W.W.W.W.    8 0 0 0 0 0 0 0 0 0 0 0 0 [ W.W.W.4.W.W.W./ 0 0 0 0 0 0 0 0 0 0 0 0 6     W.W.                                    W.W.W.W.    X.W.W.W.G.$       F W.W.W.r.    N W.W.%   : W.W.b     v.W.q.    , W.<.    W.W.W.W.W.",
"W.W.W.W.W.    8 0 0 0 0 0 0 0 0 0 0 0 a N.W.W.f.a D.W.W.h.w 0 0 0 0 0 0 0 0 0 0 0 6     W.W.W.W.W.W.W.W.W.W.W.              W.W.W.W.W.W.    X.W.W.W.W.Z       w.W.W.W.r.    N W.W.%   : W.W.b     v.W.q.    , W.<.    W.W.W.W.W.",
"W.W.W.W.W.    8 0 0 0 0 0 0 0 0 0 0 0 #.W.W.W.) 0 1.W.W.W.' 0 0 0 0 0 0 0 0 0 0 0 6     W.W.W.W.W.W.W.W.W.W.W.            W.W.W.W.W.W.W.    X.W.W.W.W.9.    < W.W.W.W.a.5 5 { W.W.x 5 M W.W.L 5 5 Z.W.u.5 5 V W.<.    W.W.W.W.W.",
"W.W.W.W.W.    8 0 0 0 0 0 0 0 0 0 0 h H.W.W.m.r 0 T E.W.W.n.u 0 0 0 0 0 0 0 0 0 0 6     W.W.W.W.W.W.W.W.W.W.W.          W.W.W.W.W.W.W.W.    X.W.W.W.W.C     *.W.W.W.W.W.W.W.W.W.W.W.W.W.W.W.W.W.W.W.W.W.W.W.W.W.<.    W.W.W.W.W.",
"W.W.W.W.W.    8 0 0 0 0 0 0 0 0 0 0 3.W.W.W.@.0 0 0 5.W.W.W.+.0 0 0 0 0 0 0 0 0 0 6     W.W.W.W.W.W.W.W.W.W.W.        W.W.W.W.W.W.W.W.W.    X.W.s.{ n     > T.W.W.W.W.W.W.W.W.W.W.W.W.W.W.W.W.W.W.W.W.W.W.W.W.W.<.    W.W.W.W.W.",
"W.W.W.W.W.    8 0 0 0 0 0 0 0 0 0 Y I.W.W.J.f 0 0 0 E W.W.W.V.d 0 0 0 0 0 0 0 0 0 6     W.W.W.W.W.W.W.W.W.W.W.    W.W.W.W.W.W.W.W.W.W.W.    X.W.,.      = a.W.W.W.W.W.W.W.W.W.W.W.W.W.W.W.W.W.W.W.W.W.W.W.W.W.W.<.    W.W.W.W.W.",
"W.W.W.W.W.    8 0 0 0 0 0 0 0 0 0 I ! ! ! R 0 0 0 0 0 Q ! ! ! h 0 0 0 0 0 0 0 0 0 6     W.W.W.W.W.W.W.W.W.W.W.  W.W.W.W.W.W.W.W.W.W.W.W.    X.W.t.1 z  .b.W.W.W.W.W.W.W.W.W.W.W.W.W.W.W.W.W.W.W.W.W.W.W.W.W.W.W.<.    W.W.W.W.W.",
"W.W.W.W.W.    8 0 0 0 0 0 0 0 0 0 0 0 0 0 0 0 0 0 0 0 0 0 0 0 0 0 0 0 0 0 0 0 0 0 6     W.W.W.W.W.W.W.W.W.W.W.W.W.W.W.W.W.W.W.W.W.W.W.W.    X.W.W.W.W.W.W.W.W.W.W.W.W.W.W.W.W.W.W.W.W.W.W.W.W.W.W.W.W.W.W.W.W.W.<.    W.W.W.W.W.",
"W.W.W.W.W.    8 0 0 0 0 0 0 0 0 0 0 0 0 0 0 0 0 0 0 0 0 0 0 0 0 0 0 0 0 0 0 0 0 0 6     W.W.W.W.W.W.W.W.W.W.W.W.W.W.W.W.W.W.W.W.W.W.W.W.    X.W.W.W.W.W.W.W.W.W.W.W.W.W.W.W.W.W.W.W.W.W.W.W.W.W.W.W.W.W.W.W.W.W.<.    W.W.W.W.W.",
"W.W.W.W.W.    8 0 0 0 0 0 0 0 0 0 0 0 0 0 0 0 0 0 0 0 0 0 0 0 0 0 0 0 0 0 0 0 0 0 6     W.W.W.W.W.W.W.W.W.W.W.W.W.W.W.W.W.W.W.W.W.W.W.W.    X.W.W.W.W.W.W.W.W.W.W.W.W.W.W.W.W.W.W.W.W.W.W.W.W.W.W.W.W.W.W.W.W.W.<.    W.W.W.W.W.",
"W.W.W.W.W.    8 0 0 0 0 0 0 0 0 0 0 0 0 0 0 0 0 0 0 0 0 0 0 0 0 0 0 0 0 0 0 0 0 0 6     W.W.W.W.W.W.W.W.W.W.W.W.W.W.W.W.W.W.W.W.W.W.W.W.    X.W.W.W.W.W.W.W.W.W.W.W.W.W.W.W.W.W.W.W.W.W.W.W.W.W.W.W.W.W.W.W.W.W.<.    W.W.W.W.W.",
"W.W.W.W.W.    8 0 0 0 0 0 0 0 0 0 0 0 0 0 0 0 0 0 0 0 0 0 0 0 0 0 0 0 0 0 0 0 0 0 6     W.W.W.W.W.W.W.W.W.W.W.W.W.W.W.W.W.W.W.W.W.W.W.W.    X.W.W.W.W.W.W.W.W.W.W.W.W.W.W.W.W.W.W.W.W.W.W.W.W.W.W.W.W.W.W.W.W.W.<.    W.W.W.W.W.",
"W.W.W.W.W.    8 0 0 0 0 0 0 0 0 0 0 0 0 0 0 0 0 0 0 0 0 0 0 0 0 0 0 0 0 0 0 0 0 0 6     W.W.W.W.W.W.W.W.W.W.W.W.W.W.W.W.W.W.W.W.W.W.W.W.    X.W.W.W.W.W.W.W.W.W.W.W.W.W.W.W.W.W.W.W.W.W.W.W.W.W.W.W.W.W.W.W.W.W.<.    W.W.W.W.W.",
"W.W.W.W.W.    8 0 0 0 0 0 0 0 0 0 0 0 0 0 0 0 0 0 0 0 0 0 0 0 0 0 0 0 0 0 0 0 0 0 6     W.W.W.W.W.W.W.W.W.W.W.W.W.W.W.W.W.W.W.W.W.W.W.W.    X.W.W.W.W.W.W.W.W.W.W.W.W.W.W.W.W.W.W.W.W.W.W.W.W.W.W.W.W.W.W.W.W.W.<.    W.W.W.W.W.",
"W.W.W.W.W.    8 0 0 0 0 0 0 0 0 0 0 0 0 0 0 0 0 0 0 0 0 0 0 0 0 0 0 0 0 0 0 0 0 0 6     W.W.W.W.W.W.W.W.W.W.W.W.W.W.W.W.W.W.W.W.W.W.W.W.    X.W.W.W.W.W.W.W.W.W.W.W.W.W.W.W.W.W.W.W.W.W.W.W.W.W.W.W.W.W.W.W.W.W.<.    W.W.W.W.W.",
"W.W.W.W.W.    8 0 0 0 0 0 0 0 0 0 0 0 0 0 0 0 0 0 0 0 0 0 0 0 0 0 0 0 0 0 0 0 0 0 6     W.W.W.W.W.W.W.W.W.W.W.W.W.W.W.W.W.W.W.W.W.W.W.W.    X.W.W.W.W.W.W.W.W.W.W.W.W.W.W.W.W.W.W.W.W.W.W.W.W.W.W.W.W.W.W.W.W.W.<.    W.W.W.W.W.",
"W.W.W.W.W.    8 0 0 0 0 0 0 0 0 0 0 0 0 0 0 0 0 0 0 0 0 0 0 0 0 0 0 0 0 0 0 0 0 0 6     W.W.W.W.W.W.W.W.W.W.W.W.W.W.W.W.W.W.W.W.W.W.W.W.    X.W.W.W.W.W.W.W.W.W.W.W.W.W.W.W.W.W.W.W.W.W.W.W.W.W.W.W.W.W.W.W.W.W.<.    W.W.W.W.W.",
"W.W.W.W.W.    8 0 0 0 0 0 0 0 0 0 0 0 0 0 0 0 0 0 0 0 0 0 0 0 0 0 0 0 0 0 0 0 0 0 6     W.W.W.W.W.W.W.W.W.W.W.W.W.W.W.W.W.W.W.W.W.W.W.W.    X.W.W.W.W.W.W.W.W.W.W.W.W.W.W.W.W.W.W.W.W.W.W.W.W.W.W.W.W.W.W.W.W.W.<.    W.W.W.W.W.",
"W.W.W.W.W.    8 0 0 0 0 0 0 0 0 0 0 0 0 0 0 0 0 0 0 0 0 0 0 0 0 0 0 0 0 0 0 0 0 0 6     W.W.W.W.W.W.W.W.W.W.W.W.W.W.W.W.W.W.W.W.W.W.W.W.    X.W.W.W.W.W.W.W.W.W.W.W.W.W.W.W.W.W.W.W.W.W.W.W.W.W.W.W.W.W.W.W.W.W.<.    W.W.W.W.W.",
"W.W.W.W.W.    7 9 9 9 9 9 9 9 9 9 9 9 9 9 9 9 9 9 9 9 9 9 9 9 9 9 9 9 9 9 9 9 9 9 ;     W.W.W.W.W.W.W.W.W.W.W.W.W.W.W.W.W.W.W.W.W.W.W.W.    } s.s.s.s.s.s.s.s.s.s.s.s.s.s.s.s.s.s.s.s.s.s.s.s.s.s.s.s.s.s.s.s.s.&.    W.W.W.W.W.",
"W.W.W.W.W.                                                                              W.W.W.W.W.W.W.W.W.W.W.W.W.W.W.W.W.W.W.W.W.W.W.W.                                                                              W.W.W.W.W.",
"W.W.W.W.W.                                                                              W.W.W.W.W.W.W.W.W.W.W.W.W.W.W.W.W.W.W.W.W.W.W.W.                                                                              W.W.W.W.W.",
"W.W.W.W.W.                                                                              W.W.W.W.W.W.W.W.W.W.W.W.W.W.W.W.W.W.W.W.W.W.W.W.                                                                              W.W.W.W.W.",
"W.W.W.W.W.W.W.W.W.W.W.W.W.W.W.W.W.W.W.W.W.W.W.W.W.W.W.W.W.W.W.W.W.W.W.W.W.W.W.W.W.W.W.W.W.W.W.W.W.W.W.W.W.W.W.W.W.W.W.W.W.W.W.W.W.W.W.W.W.W.W.W.W.W.W.W.W.W.W.W.W.W.W.W.W.W.W.W.W.W.W.W.W.W.W.W.W.W.W.W.W.W.W.W.W.W.W.W.W.W.W.W.",
"W.W.W.W.W.W.W.W.W.W.W.W.W.W.W.W.W.W.W.W.W.W.W.W.W.W.W.W.W.W.W.W.W.W.W.W.W.W.W.W.W.W.W.W.W.W.W.W.W.W.W.W.W.W.W.W.W.W.W.W.W.W.W.W.W.W.W.W.W.W.W.W.W.W.W.W.W.W.W.W.W.W.W.W.W.W.W.W.W.W.W.W.W.W.W.W.W.W.W.W.W.W.W.W.W.W.W.W.W.W.W.W.",
"W.W.W.W.W.W.W.W.W.W.W.W.W.W.W.W.W.W.W.W.W.W.W.W.W.W.W.W.W.W.W.W.W.W.W.W.W.W.W.W.W.W.W.W.W.W.W.W.W.W.W.W.W.W.W.W.W.W.W.W.W.W.W.W.W.W.W.W.W.W.W.W.W.W.W.W.W.W.W.W.W.W.W.W.W.W.W.W.W.W.W.W.W.W.W.W.W.W.W.W.W.W.W.W.W.W.W.W.W.W.W.W."
};
