/* XPM */
static char *yamlToExcel[] = {
/* columns rows colors chars-per-pixel */
"112 56 172 2 ",
"   c black",
".  c #010101",
"X  c #020202",
"o  c gray1",
"O  c #040404",
"+  c #070707",
"@  c #090909",
"#  c #101010",
"$  c #111111",
"%  c gray7",
"&  c #131313",
"*  c gray8",
"=  c #1E1E1E",
"-  c #113F27",
";  c gray15",
":  c #272727",
">  c gray16",
",  c #2A2A2A",
"<  c gray17",
"1  c gray20",
"2  c #343434",
"3  c #373737",
"4  c gray22",
"5  c gray23",
"6  c #3E3E3E",
"7  c #3F3F3F",
"8  c #14482C",
"9  c #14482D",
"0  c #175333",
"q  c #1C653E",
"w  c #207347",
"e  c #227448",
"r  c #237549",
"t  c #23754A",
"y  c #25764B",
"u  c #26774C",
"i  c #27774D",
"p  c #28784D",
"a  c #2A7A50",
"s  c #2C7B51",
"d  c #2D7B52",
"f  c #2F7C53",
"g  c #307D54",
"h  c #317E55",
"j  c #327F56",
"k  c gray26",
"l  c gray27",
"z  c #464646",
"x  c gray28",
"c  c #484848",
"v  c gray31",
"b  c #505050",
"n  c #515151",
"m  c gray32",
"M  c #5A5A5A",
"N  c #5D5D5D",
"B  c #626262",
"V  c #646464",
"C  c #656565",
"Z  c #6A6A6A",
"A  c #6C6C6C",
"S  c #6F6F6F",
"D  c gray44",
"F  c #717171",
"G  c gray45",
"H  c #747474",
"J  c gray46",
"K  c #777777",
"L  c gray50",
"P  c #358058",
"I  c #37815A",
"U  c #38825B",
"Y  c #3A835D",
"T  c #3E8660",
"R  c #3F8660",
"E  c #468B66",
"W  c #4F916E",
"Q  c #549372",
"!  c #589675",
"~  c #5B9877",
"^  c #639D7F",
"/  c #69A184",
"(  c #70A589",
")  c #71A68A",
"_  c #73A78C",
"`  c #77AA8F",
"'  c #79AB91",
"]  c #7FAF96",
"[  c gray51",
"{  c gray53",
"}  c #888888",
"|  c #898989",
" . c #8B8B8B",
".. c gray58",
"X. c #959595",
"o. c gray59",
"O. c #979797",
"+. c #989898",
"@. c gray60",
"#. c #9B9B9B",
"$. c #9F9F9F",
"%. c #83B199",
"&. c #84B299",
"*. c #85B29A",
"=. c #85B39B",
"-. c #89B59E",
";. c #8DB8A1",
":. c #98BEAA",
">. c #99BFAB",
",. c #A0A0A0",
"<. c gray67",
"1. c #AFAFAF",
"2. c #B2B2B2",
"3. c #B7B7B7",
"4. c gray72",
"5. c #BBBBBB",
"6. c #BCBCBC",
"7. c gray74",
"8. c #9CC1AD",
"9. c #9EC2AF",
"0. c #A0C3B0",
"q. c #ABCABA",
"w. c #B3CFC0",
"e. c #BCD5C7",
"r. c #C1C1C1",
"t. c #C5C5C5",
"y. c #CACACA",
"u. c #CBCBCB",
"i. c gray80",
"p. c #CBDFD4",
"a. c #D0D0D0",
"s. c #D5D5D5",
"d. c gray84",
"f. c #D7D7D7",
"g. c #DADADA",
"h. c gray87",
"j. c #DFDFDF",
"k. c #D1E2D9",
"l. c #D4E4DC",
"z. c #D9E7DF",
"x. c #DDEAE3",
"c. c #DEEAE4",
"v. c gray90",
"b. c #E7E7E7",
"n. c #E2EDE7",
"m. c #E4EEE9",
"M. c #E5EFE9",
"N. c #E6EFEA",
"B. c #E9E9E9",
"V. c #E7F0EC",
"C. c #E8F1EC",
"Z. c #ECF3EF",
"A. c #EEF4F1",
"S. c #EFF5F2",
"D. c gray94",
"F. c #F1F6F3",
"G. c #F2F7F4",
"H. c #F3F7F5",
"J. c #F4F4F4",
"K. c gray96",
"L. c gray97",
"P. c #F4F8F6",
"I. c #F5F8F6",
"U. c #F8F8F8",
"Y. c #F8FBF9",
"T. c #F9FBFA",
"R. c gray98",
"E. c #FAFCFB",
"W. c #FDFDFD",
"Q. c #FDFEFE",
"!. c #FEFEFE",
"~. c white",
/* pixels */
"~.~.~.~.~.~.~.~.~.~.~.~.~.~.~.~.~.~.~.~.~.~.~.~.~.~.~.~.~.~.~.~.~.~.~.~.~.~.~.~.~.~.~.~.~.~.~.~.~.~.~.~.~.~.~.~.~.~.~.~.~.~.~.~.~.~.~.~.~.~.~.~.~.~.~.~.~.~.~.~.~.~.~.~.~.~.~.~.~.~.~.~.~.~.~.~.~.~.~.~.~.~.~.~.~.~.~.~.~.~.~.~.",
"~.~.~.~.~.~.~.~.~.~.~.~.~.~.~.~.~.~.~.~.~.~.~.~.~.~.~.~.~.~.~.~.~.~.~.~.~.~.~.~.~.~.~.~.~.~.~.~.~.~.~.~.~.~.~.~.~.~.~.~.~.~.~.~.~.~.~.~.~.~.~.~.~.~.~.~.~.~.~.~.~.~.~.~.~.~.~.~.~.~.~.~.~.~.~.~.~.~.~.~.~.~.~.~.~.~.~.~.~.~.~.~.",
"~.~.~.~.~.~.~.~.~.~.~.~.~.~.~.~.~.~.~.~.~.~.~.~.~.~.~.~.~.~.~.~.~.~.~.~.~.~.~.~.~.~.~.~.~.~.~.~.~.~.~.~.~.~.~.~.~.~.~.~.~.~.~.~.~.~.~.~.~.~.~.~.~.~.~.~.~.~.~.~.~.~.~.~.~.~.~.~.~.~.~.~.~.~.~.~.~.~.~.~.~.~.~.~.~.~.~.~.~.~.~.~.",
"~.~.~.~.~.                                                                              ~.~.~.~.~.~.~.~.~.~.~.~.~.~.~.~.~.~.~.~.~.~.~.~.                                                                              ~.~.~.~.~.",
"~.~.~.~.~.                                                                              ~.~.~.~.~.~.~.~.~.~.~.~.~.~.~.~.~.~.~.~.~.~.~.~.                                                                              ~.~.~.~.~.",
"~.~.~.~.~.                                                                              ~.~.~.~.~.~.~.~.~.~.~.~.~.~.~.~.~.~.~.~.~.~.~.~.                                                                              ~.~.~.~.~.",
"~.~.~.~.~.    ,.j.j.j.j.j.j.j.j.j.j.j.j.j.j.j.j.j.j.j.j.j.j.j.j.j.j.j.j.j.j.j.j.j. .    ~.~.~.~.~.~.~.~.~.~.~.~.~.~.~.~.~.~.~.~.~.~.~.~.    - q q q q q q q q q q q q q q q q q q q q q q q q q q q q q q q q q 9     ~.~.~.~.~.",
"~.~.~.~.~.    3.~.~.~.~.~.~.~.~.~.~.~.~.~.~.~.~.~.~.~.~.~.~.~.~.~.~.~.~.~.~.~.~.~.$.    ~.~.~.~.~.~.~.~.~.~.~.~.~.~.~.~.~.~.~.~.~.~.~.~.    8 w w w w w w w w w w w w w w w w w w w w w w w w w w w w w w w w w 0     ~.~.~.~.~.",
"~.~.~.~.~.    3.~.~.~.~.~.~.~.~.~.~.~.~.~.~.~.~.~.~.~.~.~.~.~.~.~.~.~.~.~.~.~.~.~.$.    ~.~.~.~.~.~.~.~.~.~.~.~.~.~.~.~.~.~.~.~.~.~.~.~.    8 w w w w w w w w w w w w w w w w w w w w w w w w w w w w w w w w w 0     ~.~.~.~.~.",
"~.~.~.~.~.    3.~.~.~.~.~.~.~.~.~.~.~.~.~.~.~.~.~.~.~.~.~.~.~.~.~.~.~.~.~.~.~.~.~.$.    ~.~.~.~.~.~.~.~.~.~.~.~.~.~.~.~.~.~.~.~.~.~.~.~.    8 w w w w w w w w w w w w w w w w w w w w w w w w w w w w w w w w w 0     ~.~.~.~.~.",
"~.~.~.~.~.    3.~.~.~.~.~.~.~.~.~.~.~.~.~.~.~.~.~.~.~.~.~.~.~.~.~.~.~.~.~.~.~.~.~.$.    ~.~.~.~.~.~.~.~.~.~.~.~.~.~.~.~.~.~.~.~.~.~.~.~.    8 w w w w w w w w w w w w w w w w w w w w w w w w w w w w w w w w w 0     ~.~.~.~.~.",
"~.~.~.~.~.    3.~.~.~.~.~.~.~.~.~.~.~.~.~.~.~.~.~.~.~.~.~.~.~.~.~.~.~.~.~.~.~.~.~.$.    ~.~.~.~.~.~.~.~.~.~.~.~.~.~.~.~.~.~.~.~.~.~.~.~.    8 w w w w w w w w w w w w w w w w w w w w w w w w w w w w w w w w w 0     ~.~.~.~.~.",
"~.~.~.~.~.    3.~.~.~.~.~.~.~.~.~.~.~.~.~.~.~.~.~.~.~.~.~.~.~.~.~.~.~.~.~.~.~.~.~.$.    ~.~.~.~.~.~.~.~.~.~.~.~.~.~.~.~.~.~.~.~.~.~.~.~.    8 w w w w w w w w w w w w w w w w w w w w w w w w w w w w w w w w w 0     ~.~.~.~.~.",
"~.~.~.~.~.    3.~.~.~.~.~.~.~.~.~.~.~.~.~.~.~.~.~.~.~.~.~.~.~.~.~.~.~.~.~.~.~.~.~.$.    ~.~.~.~.~.~.~.~.~.~.~.~.~.~.~.~.~.~.~.~.~.~.~.~.    8 w w w w w w w w w w w w w w w w w w w w w w w w w w w w w w w w w 0     ~.~.~.~.~.",
"~.~.~.~.~.    3.~.~.~.~.~.~.~.~.~.~.~.~.~.~.~.~.~.~.~.~.~.~.~.~.~.~.~.~.~.~.~.~.~.$.    ~.~.~.~.~.~.~.~.~.~.~.~.~.~.~.~.~.~.~.~.~.~.~.~.    8 w w w w w w w w w w w w w w w w w w w w w w w w w w w w w w w w w 0     ~.~.~.~.~.",
"~.~.~.~.~.    3.~.~.~.~.~.~.~.~.~.~.~.~.~.~.~.~.~.~.~.~.~.~.~.~.~.~.~.~.~.~.~.~.~.$.    ~.~.~.~.~.~.~.~.~.~.~.~.~.~.~.~.~.~.~.~.~.~.~.~.    8 w w w w w w w w w w w w w w w w w w w w w w w w w w w w w w w w w 0     ~.~.~.~.~.",
"~.~.~.~.~.    3.~.~.~.~.~.~.~.~.~.~.~.~.~.~.~.~.~.~.~.~.~.~.~.~.~.~.~.~.~.~.~.~.~.$.    ~.~.~.~.~.~.~.~.~.~.~.~.~.~.~.~.~.~.~.~.~.~.~.~.    8 w w w w w w w w w w w w w w w w w w w w w w w w w w w w w w w w w 0     ~.~.~.~.~.",
"~.~.~.~.~.    3.~.~.~.~.~.~.~.~.~.~.~.~.~.~.~.~.~.~.~.~.~.~.~.~.~.~.~.~.~.~.~.~.~.$.    ~.~.~.~.~.~.~.~.~.~.~.~.~.~.~.~.~.~.~.~.~.~.~.~.    8 w w w w w w w w w w w w w w w w w w w w w w w w w w w w w w w w w 0     ~.~.~.~.~.",
"~.~.~.~.~.    3.~.~.~.~.~.~.~.~.~.~.~.~.~.~.~.~.~.~.~.~.~.~.~.~.~.~.~.~.~.~.~.~.~.$.    ~.~.~.~.~.~.~.~.~.~.~.~.~.~.~.~.~.~.~.~.~.~.~.~.    8 w w w w w w w w w w w w w w w w w w w w w w w w w w w w w w w w w 0     ~.~.~.~.~.",
"~.~.~.~.~.    3.~.~.~.~.~.~.~.~.~.~.~.~.~.~.~.~.~.~.~.~.~.~.~.~.~.~.~.~.y.v v L ~.$.    ~.~.~.~.~.~.~.~.~.~.~.~.~.~.~.~.~.~.~.~.~.~.~.~.    8 w w w w w w w w w y P P P j w w w w w g P P P i w w w w w w w w w 0     ~.~.~.~.~.",
"~.~.~.~.~.    3.~.~.~.~.~.~.~.~.~.~.~.~.~.~.~.~.~.~.~.~.~.~.~.~.~.~.~.~.2.    l ~.$.    ~.~.~.~.~.~.~.~.~.~.~.    ~.~.~.~.~.~.~.~.~.~.~.    8 w w w w w w w w w s A.~.~.!.E w w w s H.~.~.Y.U w w w w w w w w w 0     ~.~.~.~.~.",
"~.~.~.~.~.    3.~.~.~.~.~.~.~.~.~.~.~.~.~.~.~.~.~.~.~.~.~.~.~.~.~.~.~.~.2.    l ~.$.    ~.~.~.~.~.~.~.~.~.~.~.      ~.~.~.~.~.~.~.~.~.~.    8 w w w w w w w w w w %.~.~.~.q.w w w *.~.~.~.>.w w w w w w w w w w 0     ~.~.~.~.~.",
"~.~.~.~.~.    3.~.~.~.~.~.~.~.~.~.~.~.~.~.~.~.~.~.~.~.~.~.~.~.~.~.~.~.~.2.    l ~.$.    ~.~.~.~.~.~.~.~.~.~.~.        ~.~.~.~.~.~.~.~.~.    8 w w w w w w w w w w u m.~.~.E.I w t N.~.~.F.f w w w w w w w w w w 0     ~.~.~.~.~.",
"~.~.~.~.~.    3.~.+.S S t.~.~.R.F S J W.f.S S a.4.M C i.~.6.V m O.!.~.~.2.    l ~.$.    ~.~.~.~.~.~.~.~.~.~.~.            ~.~.~.~.~.~.~.    8 w w w w w w w w w w w _ ~.~.~.:.w ( ~.~.~.-.w w w w w w w w w w w 0     ~.~.~.~.~.",
"~.~.~.~.~.    3.~.o.    B ~.~.7.    b ~.4.    z X     * D .       { ~.~.2.    l ~.$.    ~.~.~.~.~.~.~.~.~.~.~.              ~.~.~.~.~.~.    8 w w w w w w w w w w w e z.~.~.G.s l.~.~.C.p w w w w w w w w w w w 0     ~.~.~.~.~.",
"~.~.~.~.~.    3.~.D.@   = ~.~.G     1.~.4.      M k       5 B     < ~.~.2.    l ~.$.    ~.~.                                  ~.~.~.~.~.    8 w w w w w w w w w w w w ^ ~.~.~.e.~.~.~.' w w w w w w w w w w w w 0     ~.~.~.~.~.",
"~.~.~.~.~.    3.~.~.N     g.~.>   & R.~.4.    3 ~.d.    + L.~.$   % ~.~.2.    l ~.$.    ~.~.                                    ~.~.~.~.    8 w w w w w w w w w w w w w p.~.~.~.~.~.c.t w w w w w w w w w w w w 0     ~.~.~.~.~.",
"~.~.~.~.~.    3.~.~.r.    X.h.    A ~.~.4.    S ~.J.    3 ~.~.1   + ~.~.2.    l ~.$.    ~.~.                                        ~.~.    8 w w w w w w w w w w w w w Q ~.~.~.~.~./ w w w w w w w w w w w w w 0     ~.~.~.~.~.",
"~.~.~.~.~.    3.~.~.~.;   n ..    u.~.~.4.    K ~.U.    7 ~.~.4   + ~.~.2.    l ~.$.    ~.~.                                        ~.~.    8 w w w w w w w w w w w w w ~ ~.~.~.~.~.) w w w w w w w w w w w w w 0     ~.~.~.~.~.",
"~.~.~.~.~.    3.~.~.~.}   # z   , ~.~.~.4.    K ~.U.    7 ~.~.4   + ~.~.2.    l ~.$.    ~.~.                                      ~.~.~.    8 w w w w w w w w w w w w w k.~.~.~.~.~.n.y w w w w w w w w w w w w 0     ~.~.~.~.~.",
"~.~.~.~.~.    3.~.~.~.b.O       | ~.~.~.4.    K ~.U.    7 ~.~.4   + ~.~.2.    l ~.$.    ~.~.                                    ~.~.~.~.    8 w w w w w w w w w w w w / ~.~.~.w.~.~.~.] w w w w w w w w w w w w 0     ~.~.~.~.~.",
"~.~.~.~.~.    3.~.~.~.~.b     o v.~.~.~.4.    K ~.U.    7 ~.~.4   + ~.~.2.    l ~.$.    ~.~.~.~.~.~.~.~.~.~.~.              ~.~.~.~.~.~.    8 w w w w w w w w w w w r x.~.~.M.u m.~.~.Z.a w w w w w w w w w w w 0     ~.~.~.~.~.",
"~.~.~.~.~.    3.~.~.~.~.<.    x ~.~.~.~.y.7 7 @.~.R.7 7 S ~.~.Z 7 l ~.~.t.7 7 H ~.$.    ~.~.~.~.~.~.~.~.~.~.~.            ~.~.~.~.~.~.~.    8 w w w w w w w w w w w ` ~.~.~.=.w &.~.~.~.;.w w w w w w w w w w w 0     ~.~.~.~.~.",
"~.~.~.~.~.    3.~.~.~.~.c     5.~.~.~.~.~.~.~.~.~.~.~.~.~.~.~.~.~.~.~.~.~.~.~.~.~.$.    ~.~.~.~.~.~.~.~.~.~.~.          ~.~.~.~.~.~.~.~.    8 w w w w w w w w w w i V.~.~.I.d w d P.~.~.H.h w w w w w w w w w w 0     ~.~.~.~.~.",
"~.~.~.~.~.    3.~.s.[ c     6 ~.~.~.~.~.~.~.~.~.~.~.~.~.~.~.~.~.~.~.~.~.~.~.~.~.~.$.    ~.~.~.~.~.~.~.~.~.~.~.        ~.~.~.~.~.~.~.~.~.    8 w w w w w w w w w w =.~.~.~.0.w w w 9.~.~.~.8.w w w w w w w w w w 0     ~.~.~.~.~.",
"~.~.~.~.~.    3.~.@.      : B.~.~.~.~.~.~.~.~.~.~.~.~.~.~.~.~.~.~.~.~.~.~.~.~.~.~.$.    ~.~.~.~.~.~.~.~.~.~.~.    ~.~.~.~.~.~.~.~.~.~.~.    8 w w w w w w w w w d S.~.~.Q.R w w w T Q.~.~.T.Y w w w w w w w w w 0     ~.~.~.~.~.",
"~.~.~.~.~.    3.~.6.2 v #.K.~.~.~.~.~.~.~.~.~.~.~.~.~.~.~.~.~.~.~.~.~.~.~.~.~.~.~.$.    ~.~.~.~.~.~.~.~.~.~.~.  ~.~.~.~.~.~.~.~.~.~.~.~.    8 w w w w w w w w w h ! ! ! W w w w w w W ! ! ! I w w w w w w w w w 0     ~.~.~.~.~.",
"~.~.~.~.~.    3.~.~.~.~.~.~.~.~.~.~.~.~.~.~.~.~.~.~.~.~.~.~.~.~.~.~.~.~.~.~.~.~.~.$.    ~.~.~.~.~.~.~.~.~.~.~.~.~.~.~.~.~.~.~.~.~.~.~.~.    8 w w w w w w w w w w w w w w w w w w w w w w w w w w w w w w w w w 0     ~.~.~.~.~.",
"~.~.~.~.~.    3.~.~.~.~.~.~.~.~.~.~.~.~.~.~.~.~.~.~.~.~.~.~.~.~.~.~.~.~.~.~.~.~.~.$.    ~.~.~.~.~.~.~.~.~.~.~.~.~.~.~.~.~.~.~.~.~.~.~.~.    8 w w w w w w w w w w w w w w w w w w w w w w w w w w w w w w w w w 0     ~.~.~.~.~.",
"~.~.~.~.~.    3.~.~.~.~.~.~.~.~.~.~.~.~.~.~.~.~.~.~.~.~.~.~.~.~.~.~.~.~.~.~.~.~.~.$.    ~.~.~.~.~.~.~.~.~.~.~.~.~.~.~.~.~.~.~.~.~.~.~.~.    8 w w w w w w w w w w w w w w w w w w w w w w w w w w w w w w w w w 0     ~.~.~.~.~.",
"~.~.~.~.~.    3.~.~.~.~.~.~.~.~.~.~.~.~.~.~.~.~.~.~.~.~.~.~.~.~.~.~.~.~.~.~.~.~.~.$.    ~.~.~.~.~.~.~.~.~.~.~.~.~.~.~.~.~.~.~.~.~.~.~.~.    8 w w w w w w w w w w w w w w w w w w w w w w w w w w w w w w w w w 0     ~.~.~.~.~.",
"~.~.~.~.~.    3.~.~.~.~.~.~.~.~.~.~.~.~.~.~.~.~.~.~.~.~.~.~.~.~.~.~.~.~.~.~.~.~.~.$.    ~.~.~.~.~.~.~.~.~.~.~.~.~.~.~.~.~.~.~.~.~.~.~.~.    8 w w w w w w w w w w w w w w w w w w w w w w w w w w w w w w w w w 0     ~.~.~.~.~.",
"~.~.~.~.~.    3.~.~.~.~.~.~.~.~.~.~.~.~.~.~.~.~.~.~.~.~.~.~.~.~.~.~.~.~.~.~.~.~.~.$.    ~.~.~.~.~.~.~.~.~.~.~.~.~.~.~.~.~.~.~.~.~.~.~.~.    8 w w w w w w w w w w w w w w w w w w w w w w w w w w w w w w w w w 0     ~.~.~.~.~.",
"~.~.~.~.~.    3.~.~.~.~.~.~.~.~.~.~.~.~.~.~.~.~.~.~.~.~.~.~.~.~.~.~.~.~.~.~.~.~.~.$.    ~.~.~.~.~.~.~.~.~.~.~.~.~.~.~.~.~.~.~.~.~.~.~.~.    8 w w w w w w w w w w w w w w w w w w w w w w w w w w w w w w w w w 0     ~.~.~.~.~.",
"~.~.~.~.~.    3.~.~.~.~.~.~.~.~.~.~.~.~.~.~.~.~.~.~.~.~.~.~.~.~.~.~.~.~.~.~.~.~.~.$.    ~.~.~.~.~.~.~.~.~.~.~.~.~.~.~.~.~.~.~.~.~.~.~.~.    8 w w w w w w w w w w w w w w w w w w w w w w w w w w w w w w w w w 0     ~.~.~.~.~.",
"~.~.~.~.~.    3.~.~.~.~.~.~.~.~.~.~.~.~.~.~.~.~.~.~.~.~.~.~.~.~.~.~.~.~.~.~.~.~.~.$.    ~.~.~.~.~.~.~.~.~.~.~.~.~.~.~.~.~.~.~.~.~.~.~.~.    8 w w w w w w w w w w w w w w w w w w w w w w w w w w w w w w w w w 0     ~.~.~.~.~.",
"~.~.~.~.~.    3.~.~.~.~.~.~.~.~.~.~.~.~.~.~.~.~.~.~.~.~.~.~.~.~.~.~.~.~.~.~.~.~.~.$.    ~.~.~.~.~.~.~.~.~.~.~.~.~.~.~.~.~.~.~.~.~.~.~.~.    8 w w w w w w w w w w w w w w w w w w w w w w w w w w w w w w w w w 0     ~.~.~.~.~.",
"~.~.~.~.~.    3.~.~.~.~.~.~.~.~.~.~.~.~.~.~.~.~.~.~.~.~.~.~.~.~.~.~.~.~.~.~.~.~.~.$.    ~.~.~.~.~.~.~.~.~.~.~.~.~.~.~.~.~.~.~.~.~.~.~.~.    8 w w w w w w w w w w w w w w w w w w w w w w w w w w w w w w w w w 0     ~.~.~.~.~.",
"~.~.~.~.~.    3.~.~.~.~.~.~.~.~.~.~.~.~.~.~.~.~.~.~.~.~.~.~.~.~.~.~.~.~.~.~.~.~.~.$.    ~.~.~.~.~.~.~.~.~.~.~.~.~.~.~.~.~.~.~.~.~.~.~.~.    8 w w w w w w w w w w w w w w w w w w w w w w w w w w w w w w w w w 0     ~.~.~.~.~.",
"~.~.~.~.~.    ,.j.j.j.j.j.j.j.j.j.j.j.j.j.j.j.j.j.j.j.j.j.j.j.j.j.j.j.j.j.j.j.j.j. .    ~.~.~.~.~.~.~.~.~.~.~.~.~.~.~.~.~.~.~.~.~.~.~.~.    - q q q q q q q q q q q q q q q q q q q q q q q q q q q q q q q q q 9     ~.~.~.~.~.",
"~.~.~.~.~.                                                                              ~.~.~.~.~.~.~.~.~.~.~.~.~.~.~.~.~.~.~.~.~.~.~.~.                                                                              ~.~.~.~.~.",
"~.~.~.~.~.                                                                              ~.~.~.~.~.~.~.~.~.~.~.~.~.~.~.~.~.~.~.~.~.~.~.~.                                                                              ~.~.~.~.~.",
"~.~.~.~.~.                                                                              ~.~.~.~.~.~.~.~.~.~.~.~.~.~.~.~.~.~.~.~.~.~.~.~.                                                                              ~.~.~.~.~.",
"~.~.~.~.~.~.~.~.~.~.~.~.~.~.~.~.~.~.~.~.~.~.~.~.~.~.~.~.~.~.~.~.~.~.~.~.~.~.~.~.~.~.~.~.~.~.~.~.~.~.~.~.~.~.~.~.~.~.~.~.~.~.~.~.~.~.~.~.~.~.~.~.~.~.~.~.~.~.~.~.~.~.~.~.~.~.~.~.~.~.~.~.~.~.~.~.~.~.~.~.~.~.~.~.~.~.~.~.~.~.~.~.",
"~.~.~.~.~.~.~.~.~.~.~.~.~.~.~.~.~.~.~.~.~.~.~.~.~.~.~.~.~.~.~.~.~.~.~.~.~.~.~.~.~.~.~.~.~.~.~.~.~.~.~.~.~.~.~.~.~.~.~.~.~.~.~.~.~.~.~.~.~.~.~.~.~.~.~.~.~.~.~.~.~.~.~.~.~.~.~.~.~.~.~.~.~.~.~.~.~.~.~.~.~.~.~.~.~.~.~.~.~.~.~.~.",
"~.~.~.~.~.~.~.~.~.~.~.~.~.~.~.~.~.~.~.~.~.~.~.~.~.~.~.~.~.~.~.~.~.~.~.~.~.~.~.~.~.~.~.~.~.~.~.~.~.~.~.~.~.~.~.~.~.~.~.~.~.~.~.~.~.~.~.~.~.~.~.~.~.~.~.~.~.~.~.~.~.~.~.~.~.~.~.~.~.~.~.~.~.~.~.~.~.~.~.~.~.~.~.~.~.~.~.~.~.~.~.~."
};
