/* XPM */
static char *yamlToExcel[] = {
/* columns rows colors chars-per-pixel */
"112 56 203 2 ",
"   c black",
".  c #010101",
"X  c #020202",
"o  c gray1",
"O  c #040404",
"+  c #050505",
"@  c #060606",
"#  c #070707",
"$  c #090909",
"%  c #0C0C0C",
"&  c #101010",
"*  c #111111",
"=  c gray7",
"-  c #131313",
";  c gray8",
":  c #181818",
">  c #191919",
",  c #1B1B1B",
"<  c #1C1C1C",
"1  c #1E1E1E",
"2  c #113F27",
"3  c #222222",
"4  c #252525",
"5  c #262626",
"6  c #272727",
"7  c #292929",
"8  c #2A2A2A",
"9  c gray17",
"0  c gray20",
"q  c #343434",
"w  c #373737",
"e  c gray22",
"r  c gray23",
"t  c #3C3C3C",
"y  c #3D3D3D",
"u  c #3E3E3E",
"i  c #3F3F3F",
"p  c #14482C",
"a  c #14482D",
"s  c #175333",
"d  c #1C653E",
"f  c #207347",
"g  c #227448",
"h  c #237549",
"j  c #23754A",
"k  c #25764B",
"l  c #26774C",
"z  c #27774D",
"x  c #28784D",
"c  c #2A7A50",
"v  c #2C7B51",
"b  c #2D7B52",
"n  c #2F7C53",
"m  c #307D54",
"M  c #317E55",
"N  c #327F56",
"B  c gray26",
"V  c gray27",
"C  c #464646",
"Z  c gray28",
"A  c #484848",
"S  c #4C4C4C",
"D  c gray31",
"F  c #505050",
"G  c #515151",
"H  c gray32",
"J  c #555555",
"K  c #5A5A5A",
"L  c #5D5D5D",
"P  c #5F5F5F",
"I  c #626262",
"U  c #646464",
"Y  c #656565",
"T  c #696969",
"R  c #6A6A6A",
"E  c #6C6C6C",
"W  c #6D6D6D",
"Q  c #6F6F6F",
"!  c gray44",
"~  c #717171",
"^  c gray45",
"/  c #747474",
"(  c gray46",
")  c #777777",
"_  c #787878",
"`  c #797979",
"'  c #7C7C7C",
"]  c gray50",
"[  c #358058",
"{  c #37815A",
"}  c #38825B",
"|  c #3A835D",
" . c #3E8660",
".. c #3F8660",
"X. c #468B66",
"o. c #4F916E",
"O. c #549372",
"+. c #589675",
"@. c #5B9877",
"#. c #639D7F",
"$. c #69A184",
"%. c #70A589",
"&. c #71A68A",
"*. c #73A78C",
"=. c #77AA8F",
"-. c #79AB91",
";. c #7FAF96",
":. c gray51",
">. c #878787",
",. c #888888",
"<. c #898989",
"1. c #8B8B8B",
"2. c #939393",
"3. c gray58",
"4. c #959595",
"5. c gray59",
"6. c #979797",
"7. c #989898",
"8. c gray60",
"9. c #9B9B9B",
"0. c #9F9F9F",
"q. c #83B199",
"w. c #84B299",
"e. c #85B29A",
"r. c #85B39B",
"t. c #89B59E",
"y. c #8DB8A1",
"u. c #98BEAA",
"i. c #99BFAB",
"p. c #A0A0A0",
"a. c #A1A1A1",
"s. c #A8A8A8",
"d. c #AAAAAA",
"f. c #ABABAB",
"g. c #ACACAC",
"h. c #AEAEAE",
"j. c #AFAFAF",
"k. c #B2B2B2",
"l. c #B6B6B6",
"z. c #B7B7B7",
"x. c #B8B8B8",
"c. c #BBBBBB",
"v. c #BCBCBC",
"b. c gray74",
"n. c #BEBEBE",
"m. c #9CC1AD",
"M. c #9EC2AF",
"N. c #A0C3B0",
"B. c #ABCABA",
"V. c #B3CFC0",
"C. c #BCD5C7",
"Z. c #C0C0C0",
"A. c #C1C1C1",
"S. c #C2C2C2",
"D. c #C3C3C3",
"F. c gray77",
"G. c #C5C5C5",
"H. c #CACACA",
"J. c #CBCBCB",
"K. c gray80",
"L. c #CBDFD4",
"P. c #D0D0D0",
"I. c #D5D5D5",
"U. c gray84",
"Y. c #D7D7D7",
"T. c #DADADA",
"R. c gray87",
"E. c #DFDFDF",
"W. c #D1E2D9",
"Q. c #D4E4DC",
"!. c #D9E7DF",
"~. c #DDEAE3",
"^. c #DEEAE4",
"/. c gray90",
"(. c #E7E7E7",
"). c #E2EDE7",
"_. c #E4EEE9",
"`. c #E5EFE9",
"'. c #E6EFEA",
"]. c #E9E9E9",
"[. c #E7F0EC",
"{. c #E8F1EC",
"}. c #ECF3EF",
"|. c #EEF4F1",
" X c #EFF5F2",
".X c gray94",
"XX c #F1F6F3",
"oX c #F2F7F4",
"OX c #F3F7F5",
"+X c #F4F4F4",
"@X c gray96",
"#X c gray97",
"$X c #F4F8F6",
"%X c #F5F8F6",
"&X c #F8F8F8",
"*X c #F8FBF9",
"=X c #F9FBFA",
"-X c gray98",
";X c #FAFCFB",
":X c #FDFDFD",
">X c #FDFEFE",
",X c #FEFEFE",
"<X c white",
/* pixels */
"F.F.F.F.F.F.F.F.F.F.F.F.F.F.F.F.F.F.F.F.F.F.F.F.F.F.F.F.F.F.F.F.F.F.F.F.F.F.F.F.F.F.F.F.F.F.F.F.F.F.F.F.F.F.F.F.F.F.F.F.F.F.F.F.F.F.F.F.F.F.F.F.F.F.F.F.F.F.F.F.F.F.F.F.F.F.F.F.F.F.F.F.F.F.F.F.F.F.F.F.F.F.F.F.F.F.F.F.F.F.F.F.",
"F.F.F.F.F.F.F.F.F.F.F.F.F.F.F.F.F.F.F.F.F.F.F.F.F.F.F.F.F.F.F.F.F.F.F.F.F.F.F.F.F.F.F.F.F.F.F.F.F.F.F.F.F.F.F.F.F.F.F.F.F.F.F.F.F.F.F.F.F.F.F.F.F.F.F.F.F.F.F.F.F.F.F.F.F.F.F.F.F.F.F.F.F.F.F.F.F.F.F.F.F.F.F.F.F.F.F.F.F.F.F.F.",
"F.F.F.F.F.F.F.F.F.F.F.F.F.F.F.F.F.F.F.F.F.F.F.F.F.F.F.F.F.F.F.F.F.F.F.F.F.F.F.F.F.F.F.F.F.F.F.F.F.F.F.F.F.F.F.F.F.F.F.F.F.F.F.F.F.F.F.F.F.F.F.F.F.F.F.F.F.F.F.F.F.F.F.F.F.F.F.F.F.F.F.F.F.F.F.F.F.F.F.F.F.F.F.F.F.F.F.F.F.F.F.F.",
"F.F.F.F.F.g.f.f.f.f.f.f.f.f.f.f.f.f.f.f.f.f.f.f.f.f.f.f.f.f.f.f.f.f.f.f.f.f.f.f.f.f.f.h.F.F.F.F.F.F.F.F.F.F.F.F.F.F.F.F.F.F.F.F.F.F.F.F.h.f.f.f.f.f.f.f.f.f.f.f.f.f.f.f.f.f.f.f.f.f.f.f.f.f.f.f.f.f.f.f.f.f.f.f.f.f.g.F.F.F.F.F.",
"F.F.F.F.F.+                                                                           : F.F.F.F.F.F.F.F.F.F.F.F.F.F.F.F.F.F.F.F.F.F.F.F.:                                                                           + F.F.F.F.F.",
"F.F.F.F.F.+                                                                           : F.F.F.F.F.F.F.F.F.F.F.F.F.F.F.F.F.F.F.F.F.F.F.F.:                                                                           + F.F.F.F.F.",
"F.F.F.F.F.+   p.E.E.E.E.E.E.E.E.E.E.E.E.E.E.E.E.E.E.E.E.E.E.E.E.E.E.E.E.E.E.E.E.E.1.  : F.F.F.F.F.F.F.F.F.F.F.F.F.F.F.F.F.F.F.F.F.F.F.F.:   2 d d d d d d d d d d d d d d d d d d d d d d d d d d d d d d d d d a   + F.F.F.F.F.",
"F.F.F.F.F.+   z.<X<X<X<X<X<X<X<X<X<X<X<X<X<X<X<X<X<X<X<X<X<X<X<X<X<X<X<X<X<X<X<X<X0.  : F.F.F.F.F.F.F.F.F.F.F.F.F.F.F.F.F.F.F.F.F.F.F.F.:   p f f f f f f f f f f f f f f f f f f f f f f f f f f f f f f f f f s   + F.F.F.F.F.",
"F.F.F.F.F.+   z.<X<X<X<X<X<X<X<X<X<X<X<X<X<X<X<X<X<X<X<X<X<X<X<X<X<X<X<X<X<X<X<X<X0.  : F.F.F.F.F.F.F.F.F.F.F.F.F.F.F.F.F.F.F.F.F.F.F.F.:   p f f f f f f f f f f f f f f f f f f f f f f f f f f f f f f f f f s   + F.F.F.F.F.",
"F.F.F.F.F.+   z.<X<X<X<X<X<X<X<X<X<X<X<X<X<X<X<X<X<X<X<X<X<X<X<X<X<X<X<X<X<X<X<X<X0.  : F.F.F.F.F.F.F.F.F.F.F.F.F.F.F.F.F.F.F.F.F.F.F.F.:   p f f f f f f f f f f f f f f f f f f f f f f f f f f f f f f f f f s   + F.F.F.F.F.",
"F.F.F.F.F.+   z.<X<X<X<X<X<X<X<X<X<X<X<X<X<X<X<X<X<X<X<X<X<X<X<X<X<X<X<X<X<X<X<X<X0.  : F.F.F.F.F.F.F.F.F.F.F.F.F.F.F.F.F.F.F.F.F.F.F.F.:   p f f f f f f f f f f f f f f f f f f f f f f f f f f f f f f f f f s   + F.F.F.F.F.",
"F.F.F.F.F.+   z.<X<X<X<X<X<X<X<X<X<X<X<X<X<X<X<X<X<X<X<X<X<X<X<X<X<X<X<X<X<X<X<X<X0.  : F.F.F.F.F.F.F.F.F.F.F.F.F.F.F.F.F.F.F.F.F.F.F.F.:   p f f f f f f f f f f f f f f f f f f f f f f f f f f f f f f f f f s   + F.F.F.F.F.",
"F.F.F.F.F.+   z.<X<X<X<X<X<X<X<X<X<X<X<X<X<X<X<X<X<X<X<X<X<X<X<X<X<X<X<X<X<X<X<X<X0.  : F.F.F.F.F.F.F.F.F.F.F.F.F.F.F.F.F.F.F.F.F.F.F.F.:   p f f f f f f f f f f f f f f f f f f f f f f f f f f f f f f f f f s   + F.F.F.F.F.",
"F.F.F.F.F.+   z.<X<X<X<X<X<X<X<X<X<X<X<X<X<X<X<X<X<X<X<X<X<X<X<X<X<X<X<X<X<X<X<X<X0.  : F.F.F.F.F.F.F.F.F.F.F.F.F.F.F.F.F.F.F.F.F.F.F.F.:   p f f f f f f f f f f f f f f f f f f f f f f f f f f f f f f f f f s   + F.F.F.F.F.",
"F.F.F.F.F.+   z.<X<X<X<X<X<X<X<X<X<X<X<X<X<X<X<X<X<X<X<X<X<X<X<X<X<X<X<X<X<X<X<X<X0.  : F.F.F.F.F.F.F.F.F.F.F.F.F.F.F.F.F.F.F.F.F.F.F.F.:   p f f f f f f f f f f f f f f f f f f f f f f f f f f f f f f f f f s   + F.F.F.F.F.",
"F.F.F.F.F.+   z.<X<X<X<X<X<X<X<X<X<X<X<X<X<X<X<X<X<X<X<X<X<X<X<X<X<X<X<X<X<X<X<X<X0.  : F.F.F.F.F.F.F.F.F.F.F.F.F.F.F.F.F.F.F.F.F.F.F.F.:   p f f f f f f f f f f f f f f f f f f f f f f f f f f f f f f f f f s   + F.F.F.F.F.",
"F.F.F.F.F.+   z.<X<X<X<X<X<X<X<X<X<X<X<X<X<X<X<X<X<X<X<X<X<X<X<X<X<X<X<X<X<X<X<X<X0.  : F.F.F.F.F.F.F.F.F.F.F.F.F.F.F.F.F.F.F.F.F.F.F.F.:   p f f f f f f f f f f f f f f f f f f f f f f f f f f f f f f f f f s   + F.F.F.F.F.",
"F.F.F.F.F.+   z.<X<X<X<X<X<X<X<X<X<X<X<X<X<X<X<X<X<X<X<X<X<X<X<X<X<X<X<X<X<X<X<X<X0.  : F.F.F.F.F.F.F.F.F.F.F.F.F.F.F.F.F.F.F.F.F.F.F.F.:   p f f f f f f f f f f f f f f f f f f f f f f f f f f f f f f f f f s   + F.F.F.F.F.",
"F.F.F.F.F.+   z.<X<X<X<X<X<X<X<X<X<X<X<X<X<X<X<X<X<X<X<X<X<X<X<X<X<X<X<X<X<X<X<X<X0.  : F.F.F.F.F.F.F.F.F.F.F.F.F.F.F.F.F.F.F.F.F.F.F.F.:   p f f f f f f f f f f f f f f f f f f f f f f f f f f f f f f f f f s   + F.F.F.F.F.",
"F.F.F.F.F.+   z.<X<X<X<X<X<X<X<X<X<X<X<X<X<X<X<X<X<X<X<X<X<X<X<X<X<X<X<XH.D D ] <X0.  : F.F.F.F.F.F.F.F.F.F.F.F.F.F.F.F.F.F.F.F.F.F.F.F.:   p f f f f f f f f f k [ [ [ N f f f f f m [ [ [ z f f f f f f f f f s   + F.F.F.F.F.",
"F.F.F.F.F.+   z.<X<X<X<X<X<X<X<X<X<X<X<X<X<X<X<X<X<X<X<X<X<X<X<X<X<X<X<Xk.    V <X0.  : F.F.F.F.F.F.F.F.F.F.F.W v.F.F.F.F.F.F.F.F.F.F.F.:   p f f f f f f f f f v |.<X<X,XX.f f f v OX<X<X*X} f f f f f f f f f s   + F.F.F.F.F.",
"F.F.F.F.F.+   z.<X<X<X<X<X<X<X<X<X<X<X<X<X<X<X<X<X<X<X<X<X<X<X<X<X<X<X<Xk.    V <X0.  : F.F.F.F.F.F.F.F.F.F.F.8 3 s.F.F.F.F.F.F.F.F.F.F.:   p f f f f f f f f f f q.<X<X<XB.f f f e.<X<X<Xi.f f f f f f f f f f s   + F.F.F.F.F.",
"F.F.F.F.F.+   z.<X<X<X<X<X<X<X<X<X<X<X<X<X<X<X<X<X<X<X<X<X<X<X<X<X<X<X<Xk.    V <X0.  : F.F.F.F.F.F.F.F.F.F.F.8   % <.F.F.F.F.F.F.F.F.F.:   p f f f f f f f f f f l _.<X<X;X{ f j '.<X<XXXn f f f f f f f f f f s   + F.F.F.F.F.",
"F.F.F.F.F.+   z.<X7.Q Q G.<X<X-X~ Q ( :XY.Q Q P.x.K Y K.<Xv.U H 6.,X<X<Xk.    V <X0.  : F.F.F.F.F.F.F.F.F.F.F.8     . P S.F.F.F.F.F.F.F.:   p f f f f f f f f f f f *.<X<X<Xu.f %.<X<X<Xt.f f f f f f f f f f f s   + F.F.F.F.F.",
"F.F.F.F.F.+   z.<X5.    I <X<Xb.    F <Xx.    C X     ; ! .       >.<X<Xk.    V <X0.  : F.F.F.F.F.F.F.F.F.F.F.7         w l.F.F.F.F.F.F.:   p f f f f f f f f f f f g !.<X<XoXv Q.<X<X{.x f f f f f f f f f f f s   + F.F.F.F.F.",
"F.F.F.F.F.+   z.<X.X$   1 <X<X^     j.<Xx.      K B       r I     9 <X<Xk.    V <X0.  : F.F.a.>.>.>.>.>.>.>.>.<           > 0.F.F.F.F.F.:   p f f f f f f f f f f f f #.<X<X<XC.<X<X<X-.f f f f f f f f f f f f s   + F.F.F.F.F.",
"F.F.F.F.F.+   z.<X<XL     T.<X7   - -X<Xx.    w <XU.    # #X<X*   = <X<Xk.    V <X0.  : F.F.J                               # ' F.F.F.F.:   p f f f f f f f f f f f f f L.<X<X<X<X<X^.j f f f f f f f f f f f f s   + F.F.F.F.F.",
"F.F.F.F.F.+   z.<X<XA.    4.R.    E <X<Xx.    Q <X+X    w <X<X0   # <X<Xk.    V <X0.  : F.F.J                                   G Z.F.F.:   p f f f f f f f f f f f f f O.<X<X<X<X<X$.f f f f f f f f f f f f f s   + F.F.F.F.F.",
"F.F.F.F.F.+   z.<X<X<X5   G 3.    J.<X<Xx.    ) <X&X    i <X<Xe   # <X<Xk.    V <X0.  : F.F.J                                   % 7.F.F.:   p f f f f f f f f f f f f f @.<X<X<X<X<X&.f f f f f f f f f f f f f s   + F.F.F.F.F.",
"F.F.F.F.F.+   z.<X<X<X,.  & C   8 <X<X<Xx.    ) <X&X    i <X<Xe   # <X<Xk.    V <X0.  : F.F.J                                 5 d.F.F.F.:   p f f f f f f f f f f f f f W.<X<X<X<X<X).k f f f f f f f f f f f f s   + F.F.F.F.F.",
"F.F.F.F.F.+   z.<X<X<X(.O       <.<X<X<Xx.    ) <X&X    i <X<Xe   # <X<Xk.    V <X0.  : F.F._ y y y y y y y y %             S n.F.F.F.F.:   p f f f f f f f f f f f f $.<X<X<XV.<X<X<X;.f f f f f f f f f f f f s   + F.F.F.F.F.",
"F.F.F.F.F.+   z.<X<X<X<XF     o /.<X<X<Xx.    ) <X&X    i <X<Xe   # <X<Xk.    V <X0.  : F.F.F.F.F.F.F.F.F.F.F.5         @ ` F.F.F.F.F.F.:   p f f f f f f f f f f f h ~.<X<X`.l _.<X<X}.c f f f f f f f f f f f s   + F.F.F.F.F.",
"F.F.F.F.F.+   z.<X<X<X<Xf.    Z <X<X<X<XH.i i 8.<X-Xi i Q <X<XR i V <X<XG.i i / <X0.  : F.F.F.F.F.F.F.F.F.F.F.5       , 0.F.F.F.F.F.F.F.:   p f f f f f f f f f f f =.<X<X<Xr.f w.<X<X<Xy.f f f f f f f f f f f s   + F.F.F.F.F.",
"F.F.F.F.F.+   z.<X<X<X<XA     c.<X<X<X<X<X<X<X<X<X<X<X<X<X<X<X<X<X<X<X<X<X<X<X<X<X0.  : F.F.F.F.F.F.F.F.F.F.F.5     t x.F.F.F.F.F.F.F.F.:   p f f f f f f f f f f z [.<X<X%Xb f b $X<X<XOXM f f f f f f f f f f s   + F.F.F.F.F.",
"F.F.F.F.F.+   z.<XI.:.A     u <X<X<X<X<X<X<X<X<X<X<X<X<X<X<X<X<X<X<X<X<X<X<X<X<X<X0.  : F.F.F.F.F.F.F.F.F.F.F.4 X T D.F.F.F.F.F.F.F.F.F.:   p f f f f f f f f f f r.<X<X<XN.f f f M.<X<X<Xm.f f f f f f f f f f s   + F.F.F.F.F.",
"F.F.F.F.F.+   z.<X8.      6 ].<X<X<X<X<X<X<X<X<X<X<X<X<X<X<X<X<X<X<X<X<X<X<X<X<X<X0.  : F.F.F.F.F.F.F.F.F.F.F.w 2.F.F.F.F.F.F.F.F.F.F.F.:   p f f f f f f f f f b  X<X<X>X..f f f  .>X<X<X=X| f f f f f f f f f s   + F.F.F.F.F.",
"F.F.F.F.F.+   z.<Xv.q D 9.@X<X<X<X<X<X<X<X<X<X<X<X<X<X<X<X<X<X<X<X<X<X<X<X<X<X<X<X0.  : F.F.F.F.F.F.F.F.F.F.F.v.F.F.F.F.F.F.F.F.F.F.F.F.:   p f f f f f f f f f M +.+.+.o.f f f f f o.+.+.+.{ f f f f f f f f f s   + F.F.F.F.F.",
"F.F.F.F.F.+   z.<X<X<X<X<X<X<X<X<X<X<X<X<X<X<X<X<X<X<X<X<X<X<X<X<X<X<X<X<X<X<X<X<X0.  : F.F.F.F.F.F.F.F.F.F.F.F.F.F.F.F.F.F.F.F.F.F.F.F.:   p f f f f f f f f f f f f f f f f f f f f f f f f f f f f f f f f f s   + F.F.F.F.F.",
"F.F.F.F.F.+   z.<X<X<X<X<X<X<X<X<X<X<X<X<X<X<X<X<X<X<X<X<X<X<X<X<X<X<X<X<X<X<X<X<X0.  : F.F.F.F.F.F.F.F.F.F.F.F.F.F.F.F.F.F.F.F.F.F.F.F.:   p f f f f f f f f f f f f f f f f f f f f f f f f f f f f f f f f f s   + F.F.F.F.F.",
"F.F.F.F.F.+   z.<X<X<X<X<X<X<X<X<X<X<X<X<X<X<X<X<X<X<X<X<X<X<X<X<X<X<X<X<X<X<X<X<X0.  : F.F.F.F.F.F.F.F.F.F.F.F.F.F.F.F.F.F.F.F.F.F.F.F.:   p f f f f f f f f f f f f f f f f f f f f f f f f f f f f f f f f f s   + F.F.F.F.F.",
"F.F.F.F.F.+   z.<X<X<X<X<X<X<X<X<X<X<X<X<X<X<X<X<X<X<X<X<X<X<X<X<X<X<X<X<X<X<X<X<X0.  : F.F.F.F.F.F.F.F.F.F.F.F.F.F.F.F.F.F.F.F.F.F.F.F.:   p f f f f f f f f f f f f f f f f f f f f f f f f f f f f f f f f f s   + F.F.F.F.F.",
"F.F.F.F.F.+   z.<X<X<X<X<X<X<X<X<X<X<X<X<X<X<X<X<X<X<X<X<X<X<X<X<X<X<X<X<X<X<X<X<X0.  : F.F.F.F.F.F.F.F.F.F.F.F.F.F.F.F.F.F.F.F.F.F.F.F.:   p f f f f f f f f f f f f f f f f f f f f f f f f f f f f f f f f f s   + F.F.F.F.F.",
"F.F.F.F.F.+   z.<X<X<X<X<X<X<X<X<X<X<X<X<X<X<X<X<X<X<X<X<X<X<X<X<X<X<X<X<X<X<X<X<X0.  : F.F.F.F.F.F.F.F.F.F.F.F.F.F.F.F.F.F.F.F.F.F.F.F.:   p f f f f f f f f f f f f f f f f f f f f f f f f f f f f f f f f f s   + F.F.F.F.F.",
"F.F.F.F.F.+   z.<X<X<X<X<X<X<X<X<X<X<X<X<X<X<X<X<X<X<X<X<X<X<X<X<X<X<X<X<X<X<X<X<X0.  : F.F.F.F.F.F.F.F.F.F.F.F.F.F.F.F.F.F.F.F.F.F.F.F.:   p f f f f f f f f f f f f f f f f f f f f f f f f f f f f f f f f f s   + F.F.F.F.F.",
"F.F.F.F.F.+   z.<X<X<X<X<X<X<X<X<X<X<X<X<X<X<X<X<X<X<X<X<X<X<X<X<X<X<X<X<X<X<X<X<X0.  : F.F.F.F.F.F.F.F.F.F.F.F.F.F.F.F.F.F.F.F.F.F.F.F.:   p f f f f f f f f f f f f f f f f f f f f f f f f f f f f f f f f f s   + F.F.F.F.F.",
"F.F.F.F.F.+   z.<X<X<X<X<X<X<X<X<X<X<X<X<X<X<X<X<X<X<X<X<X<X<X<X<X<X<X<X<X<X<X<X<X0.  : F.F.F.F.F.F.F.F.F.F.F.F.F.F.F.F.F.F.F.F.F.F.F.F.:   p f f f f f f f f f f f f f f f f f f f f f f f f f f f f f f f f f s   + F.F.F.F.F.",
"F.F.F.F.F.+   z.<X<X<X<X<X<X<X<X<X<X<X<X<X<X<X<X<X<X<X<X<X<X<X<X<X<X<X<X<X<X<X<X<X0.  : F.F.F.F.F.F.F.F.F.F.F.F.F.F.F.F.F.F.F.F.F.F.F.F.:   p f f f f f f f f f f f f f f f f f f f f f f f f f f f f f f f f f s   + F.F.F.F.F.",
"F.F.F.F.F.+   z.<X<X<X<X<X<X<X<X<X<X<X<X<X<X<X<X<X<X<X<X<X<X<X<X<X<X<X<X<X<X<X<X<X0.  : F.F.F.F.F.F.F.F.F.F.F.F.F.F.F.F.F.F.F.F.F.F.F.F.:   p f f f f f f f f f f f f f f f f f f f f f f f f f f f f f f f f f s   + F.F.F.F.F.",
"F.F.F.F.F.+   z.<X<X<X<X<X<X<X<X<X<X<X<X<X<X<X<X<X<X<X<X<X<X<X<X<X<X<X<X<X<X<X<X<X0.  : F.F.F.F.F.F.F.F.F.F.F.F.F.F.F.F.F.F.F.F.F.F.F.F.:   p f f f f f f f f f f f f f f f f f f f f f f f f f f f f f f f f f s   + F.F.F.F.F.",
"F.F.F.F.F.+   p.E.E.E.E.E.E.E.E.E.E.E.E.E.E.E.E.E.E.E.E.E.E.E.E.E.E.E.E.E.E.E.E.E.1.  : F.F.F.F.F.F.F.F.F.F.F.F.F.F.F.F.F.F.F.F.F.F.F.F.:   2 d d d d d d d d d d d d d d d d d d d d d d d d d d d d d d d d d a   + F.F.F.F.F.",
"F.F.F.F.F.+                                                                           : F.F.F.F.F.F.F.F.F.F.F.F.F.F.F.F.F.F.F.F.F.F.F.F.:                                                                           + F.F.F.F.F.",
"F.F.F.F.F.+                                                                           : F.F.F.F.F.F.F.F.F.F.F.F.F.F.F.F.F.F.F.F.F.F.F.F.:                                                                           + F.F.F.F.F.",
"F.F.F.F.F.g.f.f.f.f.f.f.f.f.f.f.f.f.f.f.f.f.f.f.f.f.f.f.f.f.f.f.f.f.f.f.f.f.f.f.f.f.f.h.F.F.F.F.F.F.F.F.F.F.F.F.F.F.F.F.F.F.F.F.F.F.F.F.h.f.f.f.f.f.f.f.f.f.f.f.f.f.f.f.f.f.f.f.f.f.f.f.f.f.f.f.f.f.f.f.f.f.f.f.f.f.g.F.F.F.F.F.",
"F.F.F.F.F.F.F.F.F.F.F.F.F.F.F.F.F.F.F.F.F.F.F.F.F.F.F.F.F.F.F.F.F.F.F.F.F.F.F.F.F.F.F.F.F.F.F.F.F.F.F.F.F.F.F.F.F.F.F.F.F.F.F.F.F.F.F.F.F.F.F.F.F.F.F.F.F.F.F.F.F.F.F.F.F.F.F.F.F.F.F.F.F.F.F.F.F.F.F.F.F.F.F.F.F.F.F.F.F.F.F.F.",
"F.F.F.F.F.F.F.F.F.F.F.F.F.F.F.F.F.F.F.F.F.F.F.F.F.F.F.F.F.F.F.F.F.F.F.F.F.F.F.F.F.F.F.F.F.F.F.F.F.F.F.F.F.F.F.F.F.F.F.F.F.F.F.F.F.F.F.F.F.F.F.F.F.F.F.F.F.F.F.F.F.F.F.F.F.F.F.F.F.F.F.F.F.F.F.F.F.F.F.F.F.F.F.F.F.F.F.F.F.F.F.F.",
"F.F.F.F.F.F.F.F.F.F.F.F.F.F.F.F.F.F.F.F.F.F.F.F.F.F.F.F.F.F.F.F.F.F.F.F.F.F.F.F.F.F.F.F.F.F.F.F.F.F.F.F.F.F.F.F.F.F.F.F.F.F.F.F.F.F.F.F.F.F.F.F.F.F.F.F.F.F.F.F.F.F.F.F.F.F.F.F.F.F.F.F.F.F.F.F.F.F.F.F.F.F.F.F.F.F.F.F.F.F.F.F."
};
